<?xml version="1.0" encoding="UTF-8" standalone="no"?>
<!-- Created with Inkscape (http://www.inkscape.org/) -->

<svg
   xmlns:dc="http://purl.org/dc/elements/1.1/"
   xmlns:cc="http://creativecommons.org/ns#"
   xmlns:rdf="http://www.w3.org/1999/02/22-rdf-syntax-ns#"
   xmlns:svg="http://www.w3.org/2000/svg"
   xmlns="http://www.w3.org/2000/svg"
   xmlns:xlink="http://www.w3.org/1999/xlink"
   xmlns:sodipodi="http://sodipodi.sourceforge.net/DTD/sodipodi-0.dtd"
   xmlns:inkscape="http://www.inkscape.org/namespaces/inkscape"
   id="svg2"
   version="1.1"
   inkscape:version="0.48.1 r9760"
   width="886.25"
   height="531.25"
   xml:space="preserve"
   sodipodi:docname="Unbenannt 1.pdf"><metadata
     id="metadata8"><rdf:RDF><cc:Work
         rdf:about=""><dc:format>image/svg+xml</dc:format><dc:type
           rdf:resource="http://purl.org/dc/dcmitype/StillImage" /><dc:title></dc:title></cc:Work></rdf:RDF></metadata><defs
     id="defs6"><linearGradient
       inkscape:collect="always"
       id="linearGradient3936"><stop
         style="stop-color:#000000;stop-opacity:1;"
         offset="0"
         id="stop3938" /><stop
         style="stop-color:#000000;stop-opacity:0;"
         offset="1"
         id="stop3940" /></linearGradient><linearGradient
       inkscape:collect="always"
       id="linearGradient3928"><stop
         style="stop-color:#000000;stop-opacity:1;"
         offset="0"
         id="stop3930" /><stop
         style="stop-color:#000000;stop-opacity:0;"
         offset="1"
         id="stop3932" /></linearGradient><clipPath
       clipPathUnits="userSpaceOnUse"
       id="clipPath16"><path
         d="m 0,-0.1 708.6,0 0,425.1 L 0,425 0,-0.1 z"
         clip-rule="evenodd"
         id="path18" /></clipPath><linearGradient
       inkscape:collect="always"
       xlink:href="#linearGradient3928"
       id="linearGradient3968"
       x1="51.394922"
       y1="319.42007"
       x2="247.05206"
       y2="319.42007"
       gradientUnits="userSpaceOnUse" /><linearGradient
       inkscape:collect="always"
       xlink:href="#linearGradient3936"
       id="linearGradient3970"
       x1="108.09492"
       y1="175.09932"
       x2="243.89473"
       y2="175.09932"
       gradientUnits="userSpaceOnUse" /></defs><sodipodi:namedview
     pagecolor="#ffffff"
     bordercolor="#666666"
     borderopacity="1"
     objecttolerance="10"
     gridtolerance="10"
     guidetolerance="10"
     inkscape:pageopacity="0"
     inkscape:pageshadow="2"
     inkscape:window-width="1680"
     inkscape:window-height="973"
     id="namedview4"
     showgrid="false"
     inkscape:zoom="0.76435351"
     inkscape:cx="356.8026"
     inkscape:cy="261.5198"
     inkscape:window-x="0"
     inkscape:window-y="24"
     inkscape:window-maximized="1"
     inkscape:current-layer="g10" /><g
     id="g10"
     inkscape:groupmode="layer"
     inkscape:label="Unbenannt 1"
     transform="matrix(1.25,0,0,-1.25,0,531.25)"><path
       d="m 358.48655,40.800458 -326.000005,0 0,340.200002 652.000005,0 0,-340.200002 -326,0 z"
       style="fill:#e6e6e6;fill-opacity:1;fill-rule:evenodd;stroke:#000000;stroke-opacity:1"
       id="path22"
       inkscape:connector-curvature="0" /><g
       id="g24"
       transform="translate(4.1865445,-15.699542)"><path
         d="m 354.3,56.5 -326,0 0,340.2 652,0 0,-340.2 -326,0 z"
         style="fill:none;stroke:none"
         id="path26"
         inkscape:connector-curvature="0" /></g><g
       id="g28"
       transform="translate(4.1865445,-15.699542)"><text
         transform="matrix(1,0,0,-1,207.9,72.3)"
         id="text30"><tspan
           style="font-size:25px;font-variant:normal;font-weight:bold;writing-mode:lr-tb;fill:#000000;fill-opacity:1;fill-rule:nonzero;stroke:none;font-family:DejaVu Sans;-inkscape-font-specification:DejaVuSansCondensed-Bold"
           x="0 18.475 29.549999 45.450001 61.450001 77.550003 90.849998 105.95 116.65 129.72501 144.925 152.72501 168.72501 184.625 200.72501 208.52499 223.89999 239.10001 252.39999 268.39999 284.29999 292"
           y="0"
           sodipodi:role="line"
           id="tspan32">Grundsätze und Technik</tspan></text>
</g><path
       d="m 377.78655,338.40046 c 77.4,0 136.6,-46 136.6,-106.3 0,-60.2 -59.2,-106.3 -136.6,-106.3 -77.5,0 -136.7,46.1 -136.7,106.3 0,60.3 59.2,106.3 136.7,106.3 z m -136.7,0 0,0 z m 273.4,-212.6 0,0 z"
       style="fill:#ffff99;fill-opacity:1;fill-rule:evenodd;stroke:#000000;stroke-opacity:1"
       id="path34"
       inkscape:connector-curvature="0" /><g
       id="g36"
       transform="translate(4.1865445,-15.699542)"><path
         d="m 373.6,354.1 c 77.4,0 136.6,-46 136.6,-106.3 0,-60.2 -59.2,-106.3 -136.6,-106.3 -77.5,0 -136.7,46.1 -136.7,106.3 0,60.3 59.2,106.3 136.7,106.3 z"
         style="fill:none;stroke:none"
         id="path38"
         inkscape:connector-curvature="0" /></g><g
       id="g40"
       transform="translate(4.1865445,-15.699542)"><path
         d="m 236.9,354.1 0,0 z"
         style="fill:none;stroke:none"
         id="path42"
         inkscape:connector-curvature="0" /></g><g
       id="g44"
       transform="translate(4.1865445,-15.699542)"><path
         d="m 510.3,141.5 0,0 z"
         style="fill:none;stroke:none"
         id="path46"
         inkscape:connector-curvature="0" /></g><g
       id="g48"
       transform="translate(4.1865445,-15.699542)"><text
         transform="matrix(1,0,0,-1,323.5,237.4)"
         id="text50"><tspan
           style="font-size:30px;font-variant:normal;font-weight:bold;writing-mode:lr-tb;fill:#3c3c3c;fill-opacity:1;fill-rule:nonzero;stroke:none;font-family:Arial;-inkscape-font-specification:Arial-BoldMT"
           x="0 21.780001 38.459999 55.049999 63.360001 81.720001"
           y="0"
           sodipodi:role="line"
           id="tspan52">Design</tspan></text>
</g><path
       d="m 167.18655,281.70046 -120.500005,0 0,42.6 241.000005,0 0,-42.6 -120.5,0 z"
       style="fill:#ccffff;fill-opacity:1;fill-rule:evenodd;stroke:#000000;stroke-opacity:1"
       id="path54"
       inkscape:connector-curvature="0" /><g
       id="g56"
       transform="translate(4.1865445,-15.699542)"><path
         d="m 163,297.4 -120.5,0 0,42.6 241,0 0,-42.6 -120.5,0 z"
         style="fill:none;stroke:none"
         id="path58"
         inkscape:connector-curvature="0" /></g><g
       id="g60"
       style="stroke:#000000;stroke-opacity:1"
       transform="translate(4.1865445,-15.699542)"><text
         transform="matrix(1,0,0,-1,49.6,310.1)"
         id="text62"
         style="stroke:#000000;stroke-opacity:1"><tspan
           style="font-size:25px;font-variant:normal;font-weight:bold;writing-mode:lr-tb;fill:#000000;fill-opacity:1;fill-rule:nonzero;stroke:#000000;stroke-opacity:1;font-family:DejaVu Sans;-inkscape-font-specification:DejaVuSansCondensed-Bold"
           x="0 15.375 26.375 39.674999 50.375 65.650002 76.650002 84.449997 99.75 107.45 123.45 139.55 150.55 166.55 179.85001"
           y="0"
           sodipodi:role="line"
           id="tspan64">Erster Eindruck</tspan></text>
</g><path
       d="m 195.48655,140.00046 -92.1,0 0,42.5 184.3,0 0,-42.5 -92.2,0 z"
       style="fill:#ffcc99;fill-opacity:1;fill-rule:evenodd;stroke:#000000;stroke-opacity:1"
       id="path66"
       inkscape:connector-curvature="0" /><g
       id="g68"
       transform="translate(4.1865445,-15.699542)"><path
         d="m 191.3,155.7 -92.1,0 0,42.5 184.3,0 0,-42.5 -92.2,0 z"
         style="fill:none;stroke:none"
         id="path70"
         inkscape:connector-curvature="0" /></g><g
       id="g72"
       style="stroke:#000000;stroke-opacity:1"
       transform="translate(4.1865445,-15.699542)"><text
         transform="matrix(1,0,0,-1,106.3,168.3)"
         id="text74"
         style="stroke:#000000;stroke-opacity:1"><tspan
           style="font-size:25px;font-variant:normal;font-weight:bold;writing-mode:lr-tb;fill:#000000;fill-opacity:1;fill-rule:nonzero;stroke:#000000;stroke-opacity:1;font-family:DejaVu Sans;-inkscape-font-specification:DejaVuSansCondensed-Bold"
           x="0 18.799999 33.974998 48.575001 56.275002 72.375 87.474998 98.175003 105.775 121.25"
           y="0"
           sodipodi:role="line"
           id="tspan76">Navigation</tspan></text>
</g><path
       d="m 555.48655,140.00046 -92.1,0 0,42.5 184.3,0 0,-42.5 -92.2,0 z"
       style="fill:#9999ff;fill-opacity:1;fill-rule:evenodd;stroke:#000000;stroke-opacity:1"
       id="path78"
       inkscape:connector-curvature="0" /><g
       id="g80"
       transform="translate(4.1865445,-15.699542)"><path
         d="m 551.3,155.7 -92.1,0 0,42.5 184.3,0 0,-42.5 -92.2,0 z"
         style="fill:none;stroke:none"
         id="path82"
         inkscape:connector-curvature="0" /></g><g
       id="g84"
       transform="translate(4.1865445,-15.699542)"><text
         transform="matrix(1,0,0,-1,466.3,168.3)"
         id="text86"><tspan
           style="font-size:25px;font-variant:normal;font-weight:bold;writing-mode:lr-tb;fill:#000000;fill-opacity:1;fill-rule:nonzero;stroke:none;font-family:DejaVu Sans;-inkscape-font-specification:DejaVuSansCondensed-Bold"
           x="0 16.174999 26.875 37.875 53.875 68.775002 79.375 95.375"
           y="0"
           sodipodi:role="line"
           id="tspan88">Struktur</tspan></text>
</g><path
       d="m 555.48655,281.70046 -92.1,0 0,42.6 184.3,0 0,-42.6 -92.2,0 z"
       style="fill:#ff3366;fill-opacity:1;fill-rule:evenodd;stroke:#000000;stroke-opacity:1"
       id="path90"
       inkscape:connector-curvature="0" /><g
       id="g92"
       transform="translate(4.1865445,-15.699542)"><path
         d="m 551.3,297.4 -92.1,0 0,42.6 184.3,0 0,-42.6 -92.2,0 z"
         style="fill:none;stroke:none"
         id="path94"
         inkscape:connector-curvature="0" /></g><g
       id="g96"
       transform="translate(4.1865445,-15.699542)"><text
         transform="matrix(1,0,0,-1,466.3,310.1)"
         id="text98"><tspan
           style="font-size:25px;font-variant:normal;font-weight:bold;writing-mode:lr-tb;fill:#000000;fill-opacity:1;fill-rule:nonzero;stroke:none;font-family:DejaVu Sans;-inkscape-font-specification:DejaVuSansCondensed-Bold"
           x="0 8.375 24.275 40.275002 55.375 63.075001"
           y="0"
           sodipodi:role="line"
           id="tspan100">Inhalt</tspan></text>
</g></g></svg>