<?xml version="1.0" encoding="UTF-8" standalone="no"?>
<!-- Created with Inkscape (http://www.inkscape.org/) -->

<svg
   xmlns:dc="http://purl.org/dc/elements/1.1/"
   xmlns:cc="http://creativecommons.org/ns#"
   xmlns:rdf="http://www.w3.org/1999/02/22-rdf-syntax-ns#"
   xmlns:svg="http://www.w3.org/2000/svg"
   xmlns="http://www.w3.org/2000/svg"
   xmlns:sodipodi="http://sodipodi.sourceforge.net/DTD/sodipodi-0.dtd"
   xmlns:inkscape="http://www.inkscape.org/namespaces/inkscape"
   id="svg2"
   version="1.1"
   inkscape:version="0.48.1 r9760"
   width="609.46143"
   height="364.5368"
   xml:space="preserve"
   sodipodi:docname="client_server_comm_www.svg"><metadata
     id="metadata8"><rdf:RDF><cc:Work
         rdf:about=""><dc:format>image/svg+xml</dc:format><dc:type
           rdf:resource="http://purl.org/dc/dcmitype/StillImage" /><dc:title /></cc:Work></rdf:RDF></metadata><defs
     id="defs6"><clipPath
       clipPathUnits="userSpaceOnUse"
       id="clipPath16"><path
         d="m 0,-0.1 708.6,0 0,425.1 L 0,425 0,-0.1 z"
         clip-rule="evenodd"
         id="path18"
         inkscape:connector-curvature="0" /></clipPath></defs><sodipodi:namedview
     pagecolor="#ffffff"
     bordercolor="#666666"
     borderopacity="1"
     objecttolerance="10"
     gridtolerance="10"
     guidetolerance="10"
     inkscape:pageopacity="0"
     inkscape:pageshadow="2"
     inkscape:window-width="1680"
     inkscape:window-height="973"
     id="namedview4"
     showgrid="false"
     inkscape:zoom="0.54047955"
     inkscape:cx="407.75"
     inkscape:cy="163.94468"
     inkscape:window-x="0"
     inkscape:window-y="24"
     inkscape:window-maximized="1"
     inkscape:current-layer="g10"
     fit-margin-top="0"
     fit-margin-left="0"
     fit-margin-right="0"
     fit-margin-bottom="0" /><g
     id="g10"
     inkscape:groupmode="layer"
     inkscape:label="client_server_comm_www"
     transform="matrix(1.25,0,0,-1.25,-35.375,489.34472)"><g
       id="g22"
       transform="matrix(0.83831485,0,0,0.83831485,4.5756896,63.295819)"><text
   transform="matrix(1,0,0,-1,209.8,377.8)"
   id="text24"><tspan
     style="font-size:18px;font-variant:normal;font-weight:normal;writing-mode:lr-tb;fill:#000000;fill-opacity:1;fill-rule:nonzero;stroke:none;font-family:DejaVu Sans;-inkscape-font-specification:DejaVuSansCondensed"
     x="0 11.304 15.894 20.393999 30.384001 40.661999 46.962002 52.848 63.234001 73.134003 79.739998 89.316002 99.306 104.706 110.592 120.294 130.194 145.98 161.67599 171.95399 182.23199 186.82201 195.82201 205.722 212.112 216.702 226.60201 236.88 242.064 246.65401 262.35001 267.534 283.42801 299.42999"
     y="0"
     sodipodi:role="line"
     id="tspan26">Client-Server-Kommunikation im WWW</tspan></text>

</g><g
       id="g28"
       transform="matrix(0.83831485,0,0,0.83831485,180.45415,380.01117)"><path
         d="m 0,-1.7 315.6,0"
         style="fill:none;stroke:#000000;stroke-width:1.10000002;stroke-linecap:butt;stroke-linejoin:miter;stroke-miterlimit:10;stroke-opacity:1;stroke-dasharray:none"
         id="path30"
         inkscape:connector-curvature="0" /></g><path
       d="m 88.239512,204.55187 -54.574297,0 0,64.46641 109.232425,0 0,-64.46641 -54.658128,0 z"
       style="fill:#ffff00;fill-opacity:1;fill-rule:evenodd;stroke:none"
       id="path32"
       inkscape:connector-curvature="0" /><g
       id="g34"
       transform="matrix(0.83831485,0,0,0.83831485,4.5756896,63.295819)"><path
         d="m 99.8,168.5 -65.1,0 0,76.9 130.3,0 0,-76.9 -65.2,0 z"
         style="fill:none;stroke:#000000;stroke-width:0.99049997;stroke-linecap:butt;stroke-linejoin:miter;stroke-miterlimit:7.66129017;stroke-opacity:1;stroke-dasharray:none"
         id="path36"
         inkscape:connector-curvature="0" /></g><g
       id="g38"
       transform="matrix(0.83831485,0,0,0.83831485,4.5756896,63.295819)"><text
   transform="matrix(1,0,0,-1,45.6,199.8)"
   id="text40"><tspan
     style="font-size:18px;font-variant:normal;font-weight:normal;writing-mode:lr-tb;fill:#000000;fill-opacity:1;fill-rule:nonzero;stroke:none;font-family:Arial;-inkscape-font-specification:ArialMT"
     x="0 16.596001 26.604 36.612 42.605999 54.594002 60.588001 70.487999 83.484001 92.484001 102.492"
     y="0"
     sodipodi:role="line"
     id="tspan42">Web-Browser</tspan></text>

</g><path
       d="m 303.51877,204.80337 -54.65813,0 0,64.46641 109.23242,0 0,-64.46641 -54.57429,0 z"
       style="fill:#ffb515;fill-opacity:1;fill-rule:evenodd;stroke:none"
       id="path44"
       inkscape:connector-curvature="0" /><g
       id="g46"
       transform="matrix(0.83831485,0,0,0.83831485,4.5756896,63.295819)"><path
         d="m 356.6,168.8 -65.2,0 0,76.9 130.3,0 0,-76.9 -65.1,0 z"
         style="fill:none;stroke:#000000;stroke-width:0.99049997;stroke-linecap:butt;stroke-linejoin:miter;stroke-miterlimit:7.66129017;stroke-opacity:1;stroke-dasharray:none"
         id="path48"
         inkscape:connector-curvature="0" /></g><g
       id="g50"
       transform="matrix(0.83831485,0,0,0.83831485,4.5756896,63.295819)"><text
   transform="matrix(1,0,0,-1,308.8,200)"
   id="text52"><tspan
     style="font-size:18px;font-variant:normal;font-weight:normal;writing-mode:lr-tb;fill:#000000;fill-opacity:1;fill-rule:nonzero;stroke:none;font-family:Arial;-inkscape-font-specification:ArialMT"
     x="0 16.704 26.712 36.612 42.605999 54.594002 64.601997 70.596001 79.596001 89.496002"
     y="0"
     sodipodi:role="line"
     id="tspan54">Web-Server</tspan></text>

</g><g
       id="g56"
       transform="matrix(0.83831485,0,0,0.83831485,4.5756896,63.295819)"><path
         d="m 168.2,206.9 118.4,0.2"
         style="fill:none;stroke:#000000;stroke-width:1;stroke-linecap:butt;stroke-linejoin:miter;stroke-miterlimit:10;stroke-opacity:1;stroke-dasharray:none"
         id="path58"
         inkscape:connector-curvature="0" /></g><path
       d="m 142.89764,236.74316 3.35326,1.67663 0,-3.35326 -3.35326,1.67663 z"
       style="fill:#000000;fill-opacity:1;fill-rule:evenodd;stroke:none"
       id="path60"
       inkscape:connector-curvature="0" /><path
       d="m 248.86064,236.91083 -5.02989,-2.43112 0,4.94606 5.02989,-2.51494 z"
       style="fill:#000000;fill-opacity:1;fill-rule:evenodd;stroke:none"
       id="path62"
       inkscape:connector-curvature="0" /><path
       d="m 460.87046,204.46804 -54.65812,0 0,64.46641 109.23242,0 0,-64.46641 -54.5743,0 z"
       style="fill:#ff6309;fill-opacity:1;fill-rule:evenodd;stroke:none"
       id="path64"
       inkscape:connector-curvature="0" /><g
       id="g66"
       transform="matrix(0.83831485,0,0,0.83831485,4.5756896,63.295819)"><path
         d="m 544.3,168.4 -65.2,0 0,76.9 130.3,0 0,-76.9 -65.1,0 z"
         style="fill:none;stroke:#000000;stroke-width:0.99049997;stroke-linecap:butt;stroke-linejoin:miter;stroke-miterlimit:7.66129017;stroke-opacity:1;stroke-dasharray:none"
         id="path68"
         inkscape:connector-curvature="0" /></g><g
       id="g70"
       transform="matrix(0.83831485,0,0,0.83831485,4.5756896,63.295819)"><text
   transform="matrix(1,0,0,-1,497.4,217.6)"
   id="text72"><tspan
     style="font-size:18px;font-variant:normal;font-weight:normal;writing-mode:lr-tb;fill:#000000;fill-opacity:1;fill-rule:nonzero;stroke:none;font-family:Arial;-inkscape-font-specification:ArialMT"
     x="0"
     y="0"
     id="tspan74">„</tspan></text>

</g><g
       id="g76"
       transform="matrix(0.83831485,0,0,0.83831485,4.5756896,63.295819)"><text
   transform="matrix(1,0,0,-1,503.4,217.6)"
   id="text78"><tspan
     style="font-size:18px;font-variant:normal;font-weight:normal;writing-mode:lr-tb;fill:#000000;fill-opacity:1;fill-rule:nonzero;stroke:none;font-family:Arial;-inkscape-font-specification:ArialMT"
     x="0 11.988 21.996 31.896 35.891998 39.798 48.798 58.806 63.792 67.788002 77.795998 87.695999"
     y="0"
     sodipodi:role="line"
     id="tspan80">Application </tspan></text>

</g><g
       id="g82"
       transform="matrix(0.83831485,0,0,0.83831485,4.5756896,63.295819)"><text
   transform="matrix(1,0,0,-1,512.3,196)"
   id="text84"><tspan
     style="font-size:18px;font-variant:normal;font-weight:normal;writing-mode:lr-tb;fill:#000000;fill-opacity:1;fill-rule:nonzero;stroke:none;font-family:Arial;-inkscape-font-specification:ArialMT"
     x="0 11.988 21.996 27.99 36.990002 46.889999 52.883999 58.877998"
     y="0"
     sodipodi:role="line"
     id="tspan86">Server“ </tspan></text>

</g><g
       id="g88"
       transform="matrix(0.83831485,0,0,0.83831485,4.5756896,63.295819)"><text
   transform="matrix(1,0,0,-1,501.8,180.4)"
   id="text90"><tspan
     style="font-size:12px;font-variant:normal;font-weight:normal;writing-mode:lr-tb;fill:#000000;fill-opacity:1;fill-rule:nonzero;stroke:none;font-family:Arial;-inkscape-font-specification:ArialMT"
     x="0 3.9960001 9.9960003 13.38 16.68 24.768 28.068001 31.452 40.056 49.439999 52.824001 56.124001 64.211998 72.816002 80.807999"
     y="0"
     sodipodi:role="line"
     id="tspan92">(z. B. CGI/PHP)</tspan></text>

</g><g
       id="g94"
       transform="matrix(0.83831485,0,0,0.83831485,4.5756896,63.295819)"><path
         d="m 543.7,145 0.5,18.6"
         style="fill:none;stroke:#000000;stroke-width:1;stroke-linecap:butt;stroke-linejoin:miter;stroke-miterlimit:10;stroke-opacity:1;stroke-dasharray:none"
         id="path96"
         inkscape:connector-curvature="0" /></g><path
       d="m 460.28364,182.16887 -1.59279,3.35325 3.35326,-0.0838 -1.76047,-3.26942 z"
       style="fill:#000000;fill-opacity:1;fill-rule:evenodd;stroke:none"
       id="path98"
       inkscape:connector-curvature="0" /><path
       d="m 460.87046,204.46804 2.34729,-5.11372 -5.02989,0.16766 2.6826,4.94606 z"
       style="fill:#000000;fill-opacity:1;fill-rule:evenodd;stroke:none"
       id="path100"
       inkscape:connector-curvature="0" /><path
       d="m 413.33801,174.87553 c 0,3.60475 23.47282,7.29334 46.94563,7.29334 23.47282,0 46.94564,-3.68859 46.94564,-7.29334 l 0,-32.02363 c 0,-3.68859 -23.47282,-7.37717 -46.94564,-7.37717 -23.47281,0 -46.94563,3.68858 -46.94563,7.37717 l 0,32.02363 z m 0,7.29334 0,0 z m 93.89127,-46.69414 0,0 z"
       style="fill:#ccccff;fill-opacity:1;fill-rule:evenodd;stroke:none"
       id="path102"
       inkscape:connector-curvature="0" /><g
       id="g104"
       transform="matrix(0.83831485,0,0,0.83831485,4.5756896,63.295819)"><path
         d="m 487.6,133.1 c 0,4.3 28,8.7 56,8.7 28,0 56,-4.4 56,-8.7 l 0,-38.2 c 0,-4.4 -28,-8.8 -56,-8.8 -28,0 -56,4.4 -56,8.8 l 0,38.2 z"
         style="fill:none;stroke:#000000;stroke-width:0.99049997;stroke-linecap:butt;stroke-linejoin:round;stroke-miterlimit:10;stroke-opacity:1;stroke-dasharray:none"
         id="path106"
         inkscape:connector-curvature="0" /></g><g
       id="g108"
       transform="matrix(0.83831485,0,0,0.83831485,4.5756896,63.295819)"><path
         d="m 487.6,141.8 0,0 z"
         style="fill:none;stroke:#000000;stroke-width:0.99049997;stroke-linecap:butt;stroke-linejoin:round;stroke-miterlimit:10;stroke-opacity:1;stroke-dasharray:none"
         id="path110"
         inkscape:connector-curvature="0" /></g><g
       id="g112"
       transform="matrix(0.83831485,0,0,0.83831485,4.5756896,63.295819)"><path
         d="m 599.6,86.1 0,0 z"
         style="fill:none;stroke:#000000;stroke-width:0.99049997;stroke-linecap:butt;stroke-linejoin:round;stroke-miterlimit:10;stroke-opacity:1;stroke-dasharray:none"
         id="path114"
         inkscape:connector-curvature="0" /></g><path
       d="m 413.33801,174.87553 c 0,-3.68859 23.47282,-7.37717 46.94563,-7.37717 23.47282,0 46.94564,3.68858 46.94564,7.37717 l -93.89127,0 z m 0,7.29334 0,0 z m 93.89127,-46.69414 0,0 z"
       style="fill:#ccccff;fill-opacity:1;fill-rule:evenodd;stroke:none"
       id="path116"
       inkscape:connector-curvature="0" /><g
       id="g118"
       transform="matrix(0.83831485,0,0,0.83831485,4.5756896,63.295819)"><path
         d="m 487.6,133.1 c 0,-4.4 28,-8.8 56,-8.8 28,0 56,4.4 56,8.8"
         style="fill:none;stroke:#000000;stroke-width:0.99049997;stroke-linecap:butt;stroke-linejoin:round;stroke-miterlimit:10;stroke-opacity:1;stroke-dasharray:none"
         id="path120"
         inkscape:connector-curvature="0" /></g><g
       id="g122"
       transform="matrix(0.83831485,0,0,0.83831485,4.5756896,63.295819)"><path
         d="m 487.6,141.8 0,0 z"
         style="fill:none;stroke:#000000;stroke-width:0.99049997;stroke-linecap:butt;stroke-linejoin:round;stroke-miterlimit:10;stroke-opacity:1;stroke-dasharray:none"
         id="path124"
         inkscape:connector-curvature="0" /></g><g
       id="g126"
       transform="matrix(0.83831485,0,0,0.83831485,4.5756896,63.295819)"><path
         d="m 599.6,86.1 0,0 z"
         style="fill:none;stroke:#000000;stroke-width:0.99049997;stroke-linecap:butt;stroke-linejoin:round;stroke-miterlimit:10;stroke-opacity:1;stroke-dasharray:none"
         id="path128"
         inkscape:connector-curvature="0" /></g><g
       id="g130"
       transform="matrix(0.83831485,0,0,0.83831485,4.5756896,63.295819)"><text
   transform="matrix(1,0,0,-1,500.2,102.4)"
   id="text132"><tspan
     style="font-size:18px;font-variant:normal;font-weight:normal;writing-mode:lr-tb;fill:#000000;fill-opacity:1;fill-rule:nonzero;stroke:none;font-family:Arial;-inkscape-font-specification:ArialMT"
     x="0 12.996 22.896 27.972 37.872002 47.880001 57.779999 67.788002 77.795998"
     y="0"
     sodipodi:role="line"
     id="tspan134">Datenbank</tspan></text>

</g><g
       id="g136"
       transform="matrix(0.83831485,0,0,0.83831485,4.5756896,63.295819)"><path
         d="m 424.9,207.1 49.4,-0.3"
         style="fill:none;stroke:#000000;stroke-width:1;stroke-linecap:butt;stroke-linejoin:miter;stroke-miterlimit:10;stroke-opacity:1;stroke-dasharray:none"
         id="path138"
         inkscape:connector-curvature="0" /></g><path
       d="m 358.1769,236.91083 3.26942,1.67662 0,-3.35325 -3.26942,1.67663 z"
       style="fill:#000000;fill-opacity:1;fill-rule:evenodd;stroke:none"
       id="path140"
       inkscape:connector-curvature="0" /><path
       d="m 406.21234,236.65933 -5.02989,-2.43111 0.0838,4.94606 4.94606,-2.51495 z"
       style="fill:#000000;fill-opacity:1;fill-rule:evenodd;stroke:none"
       id="path142"
       inkscape:connector-curvature="0" /><g
       id="g144"
       transform="matrix(0.83831485,0,0,0.83831485,4.5756896,63.295819)"><path
         d="m 226.8,312.9 0,-14.4"
         style="fill:none;stroke:#000000;stroke-width:1.39999998;stroke-linecap:butt;stroke-linejoin:miter;stroke-miterlimit:10;stroke-opacity:1;stroke-dasharray:none"
         id="path146"
         inkscape:connector-curvature="0" /></g><g
       id="g148"
       transform="matrix(0.83831485,0,0,0.83831485,4.5756896,63.295819)"><path
         d="m 226.8,284.1 0,-14.4"
         style="fill:none;stroke:#000000;stroke-width:1.39999998;stroke-linecap:butt;stroke-linejoin:miter;stroke-miterlimit:10;stroke-opacity:1;stroke-dasharray:none"
         id="path150"
         inkscape:connector-curvature="0" /></g><g
       id="g152"
       transform="matrix(0.83831485,0,0,0.83831485,4.5756896,63.295819)"><path
         d="m 226.8,255.3 0,-14.4"
         style="fill:none;stroke:#000000;stroke-width:1.39999998;stroke-linecap:butt;stroke-linejoin:miter;stroke-miterlimit:10;stroke-opacity:1;stroke-dasharray:none"
         id="path154"
         inkscape:connector-curvature="0" /></g><g
       id="g156"
       transform="matrix(0.83831485,0,0,0.83831485,4.5756896,63.295819)"><path
         d="m 226.8,226.5 0,-14.4"
         style="fill:none;stroke:#000000;stroke-width:1.39999998;stroke-linecap:butt;stroke-linejoin:miter;stroke-miterlimit:10;stroke-opacity:1;stroke-dasharray:none"
         id="path158"
         inkscape:connector-curvature="0" /></g><g
       id="g160"
       transform="matrix(0.83831485,0,0,0.83831485,4.5756896,63.295819)"><path
         d="m 226.8,197.7 0,-14.4"
         style="fill:none;stroke:#000000;stroke-width:1.39999998;stroke-linecap:butt;stroke-linejoin:miter;stroke-miterlimit:10;stroke-opacity:1;stroke-dasharray:none"
         id="path162"
         inkscape:connector-curvature="0" /></g><g
       id="g164"
       transform="matrix(0.83831485,0,0,0.83831485,4.5756896,63.295819)"><path
         d="m 226.8,168.9 0,-14.4"
         style="fill:none;stroke:#000000;stroke-width:1.39999998;stroke-linecap:butt;stroke-linejoin:miter;stroke-miterlimit:10;stroke-opacity:1;stroke-dasharray:none"
         id="path166"
         inkscape:connector-curvature="0" /></g><g
       id="g168"
       transform="matrix(0.83831485,0,0,0.83831485,4.5756896,63.295819)"><path
         d="m 226.8,140.1 0,-14.4"
         style="fill:none;stroke:#000000;stroke-width:1.39999998;stroke-linecap:butt;stroke-linejoin:miter;stroke-miterlimit:10;stroke-opacity:1;stroke-dasharray:none"
         id="path170"
         inkscape:connector-curvature="0" /></g><g
       id="g172"
       transform="matrix(0.83831485,0,0,0.83831485,4.5756896,63.295819)"><path
         d="m 226.8,111.3 0,-14.4"
         style="fill:none;stroke:#000000;stroke-width:1.39999998;stroke-linecap:butt;stroke-linejoin:miter;stroke-miterlimit:10;stroke-opacity:1;stroke-dasharray:none"
         id="path174"
         inkscape:connector-curvature="0" /></g><path
       d="m 28.3,373.80764 0,-11.9879 0,-8.88614 0,-8.96997 0,-12.15556 0,-8.96997 0,-8.96997 0,-11.9879 17.772275,0 13.329206,0 13.329206,0 18.107601,0 29.089522,-44.26303 -2.43111,44.26303 17.77228,0 0,11.9879 0,8.96997 0,8.96997 0,12.15556 0,8.96997 0,8.88614 0,11.9879 -17.77228,0 -13.32921,0 -13.329202,0 -18.107601,0 -13.329206,0 -13.329206,0 -17.772275,0 0,0 z m 0,0 0,0 z m 106.96898,-71.92741 0,0 z"
       style="fill:#e6e6e6;fill-opacity:1;fill-rule:evenodd;stroke:none"
       id="path176"
       inkscape:connector-curvature="0" /><g
       id="g178"
       transform="matrix(0.83831485,0,0,0.83831485,4.5756896,63.295819)"><path
         d="m 28.3,370.4 0,-14.3 0,-10.6 0,-10.7 0,-14.5 0,-10.7 0,-10.7 0,-14.3 21.2,0 15.9,0 15.9,0 21.6,0 34.7,-52.8 -2.9,52.8 21.2,0 0,14.3 0,10.7 0,10.7 0,14.5 0,10.7 0,10.6 0,14.3 -21.2,0 -15.9,0 -15.9,0 -21.6,0 -15.9,0 -15.9,0 -21.2,0 0,0 z"
         style="fill:none;stroke:none"
         id="path180"
         inkscape:connector-curvature="0" /></g><g
       id="g182"
       transform="matrix(0.83831485,0,0,0.83831485,4.5756896,63.295819)"><path
         d="m 28.3,370.4 0,0 z"
         style="fill:none;stroke:none"
         id="path184"
         inkscape:connector-curvature="0" /></g><g
       id="g186"
       transform="matrix(0.83831485,0,0,0.83831485,4.5756896,63.295819)"><path
         d="m 155.9,284.6 0,0 z"
         style="fill:none;stroke:none"
         id="path188"
         inkscape:connector-curvature="0" /></g><g
       id="g190"
       transform="matrix(0.83831485,0,0,0.83831485,4.5756896,63.295819)"><text
   transform="matrix(1,0,0,-1,49.7,354.1)"
   id="text192"><tspan
     style="font-size:14px;font-variant:normal;font-weight:normal;writing-mode:lr-tb;fill:#000000;fill-opacity:1;fill-rule:nonzero;stroke:none;font-family:Arial;-inkscape-font-specification:ArialMT"
     x="0 13.006 20.790001 28.573999 33.264 42.560001 47.25 55.034 65.225998 72.309998 80.094002 84.783997"
     y="0"
     sodipodi:role="line"
     id="tspan194">Web-Browser </tspan></text>

</g><g
       id="g196"
       transform="matrix(0.83831485,0,0,0.83831485,4.5756896,63.295819)"><text
   transform="matrix(1,0,0,-1,45.2,338.4)"
   id="text198"><tspan
     style="font-size:14px;font-variant:normal;font-weight:normal;writing-mode:lr-tb;fill:#000000;fill-opacity:1;fill-rule:nonzero;stroke:none;font-family:Arial;-inkscape-font-specification:ArialMT"
     x="0 3.99 11.774 16.464001 24.247999 32.032001 36.638 40.627998 44.618 52.402 55.495998 63.279999 67.269997 74.353996 82.054001 93.744003"
     y="0"
     sodipodi:role="line"
     id="tspan200">fordert die vom </tspan></text>

</g><g
       id="g202"
       transform="matrix(0.83831485,0,0,0.83831485,4.5756896,63.295819)"><text
   transform="matrix(1,0,0,-1,71.4,322.6)"
   id="text204"><tspan
     style="font-size:14px;font-variant:normal;font-weight:normal;writing-mode:lr-tb;fill:#000000;fill-opacity:1;fill-rule:nonzero;stroke:none;font-family:Arial;-inkscape-font-specification:ArialMT"
     x="0 10.192 17.976 21.868 28.952 36.736 41.425999"
     y="0"
     sodipodi:role="line"
     id="tspan206">Nutzer </tspan></text>

</g><g
       id="g208"
       transform="matrix(0.83831485,0,0,0.83831485,4.5756896,63.295819)"><text
   transform="matrix(1,0,0,-1,53.1,306.9)"
   id="text210"><tspan
     style="font-size:14px;font-variant:normal;font-weight:normal;writing-mode:lr-tb;fill:#000000;fill-opacity:1;fill-rule:nonzero;stroke:none;font-family:Arial;-inkscape-font-specification:ArialMT"
     x="0 7.7839999 15.568 23.450001 31.233999 39.018002 46.717999 54.501999 62.285999 70.167999 77.952003"
     y="0"
     sodipodi:role="line"
     id="tspan212">angegebene </tspan></text>

</g><g
       id="g214"
       transform="matrix(0.83831485,0,0,0.83831485,4.5756896,63.295819)"><text
   transform="matrix(1,0,0,-1,48.7,291.2)"
   id="text216"><tspan
     style="font-size:14px;font-variant:normal;font-weight:normal;writing-mode:lr-tb;fill:#000000;fill-opacity:1;fill-rule:nonzero;stroke:none;font-family:Arial;-inkscape-font-specification:ArialMT"
     x="0 10.192 17.976 25.059999 32.144001 39.928001 47.712002 52.318001 59.402 67.185997 71.176003 78.959999"
     y="0"
     sodipodi:role="line"
     id="tspan218">Ressource an</tspan></text>

</g><path
       d="m 301.59064,349.41268 0,-7.88016 0,-5.95204 0,-5.8682 0,-8.13165 0,-5.86821 0,-5.95203 0,-7.964 17.77228,0 -7.7125,-34.45474 34.37091,34.45474 18.1076,0 13.32921,0 13.3292,0 17.77228,0 0,7.964 0,5.95203 0,5.86821 0,8.13165 0,5.8682 0,5.95204 0,7.88016 -17.77228,0 -13.3292,0 -13.32921,0 -18.1076,0 -13.32921,0 -13.3292,0 -17.77228,0 0,0 z m 0,0 0,0 z m 106.96898,-47.61629 0,0 z"
       style="fill:#e6e6e6;fill-opacity:1;fill-rule:evenodd;stroke:none"
       id="path220"
       inkscape:connector-curvature="0" /><g
       id="g222"
       transform="matrix(0.83831485,0,0,0.83831485,4.5756896,63.295819)"><path
         d="m 354.3,341.3 0,-9.4 0,-7.1 0,-7 0,-9.7 0,-7 0,-7.1 0,-9.5 21.2,0 -9.2,-41.1 41,41.1 21.6,0 15.9,0 15.9,0 21.2,0 0,9.5 0,7.1 0,7 0,9.7 0,7 0,7.1 0,9.4 -21.2,0 -15.9,0 -15.9,0 -21.6,0 -15.9,0 -15.9,0 -21.2,0 0,0 z"
         style="fill:none;stroke:none"
         id="path224"
         inkscape:connector-curvature="0" /></g><g
       id="g226"
       transform="matrix(0.83831485,0,0,0.83831485,4.5756896,63.295819)"><path
         d="m 354.3,341.3 0,0 z"
         style="fill:none;stroke:none"
         id="path228"
         inkscape:connector-curvature="0" /></g><g
       id="g230"
       transform="matrix(0.83831485,0,0,0.83831485,4.5756896,63.295819)"><path
         d="m 481.9,284.5 0,0 z"
         style="fill:none;stroke:none"
         id="path232"
         inkscape:connector-curvature="0" /></g><g
       id="g234"
       transform="matrix(0.83831485,0,0,0.83831485,4.5756896,63.295819)"><text
   transform="matrix(1,0,0,-1,380.8,323.8)"
   id="text236"><tspan
     style="font-size:14px;font-variant:normal;font-weight:normal;writing-mode:lr-tb;fill:#000000;fill-opacity:1;fill-rule:nonzero;stroke:none;font-family:Arial;-inkscape-font-specification:ArialMT"
     x="0 13.006 20.790001 28.573999 33.264 42.560001 50.344002 55.034 62.118 69.902 74.508003"
     y="0"
     sodipodi:role="line"
     id="tspan238">Web-Server </tspan></text>

</g><g
       id="g240"
       transform="matrix(0.83831485,0,0,0.83831485,4.5756896,63.295819)"><text
   transform="matrix(1,0,0,-1,368,308.1)"
   id="text242"><tspan
     style="font-size:14px;font-variant:normal;font-weight:normal;writing-mode:lr-tb;fill:#000000;fill-opacity:1;fill-rule:nonzero;stroke:none;font-family:Arial;-inkscape-font-specification:ArialMT"
     x="0 7.0840001 14.868 19.558001 27.341999 32.032001 39.731998 47.613998 50.708 54.599998 62.481998 66.374001 70.363998 80.556 91.447998 95.339996"
     y="0"
     sodipodi:role="line"
     id="tspan244">verarbeitet CGI-</tspan></text>

</g><g
       id="g246"
       transform="matrix(0.83831485,0,0,0.83831485,4.5756896,63.295819)"><text
   transform="matrix(1,0,0,-1,361.8,292.3)"
   id="text248"><tspan
     style="font-size:14px;font-variant:normal;font-weight:normal;writing-mode:lr-tb;fill:#000000;fill-opacity:1;fill-rule:nonzero;stroke:none;font-family:Arial;-inkscape-font-specification:ArialMT"
     x="0 9.3800001 16.464001 21.153999 24.247999 32.032001 35.924 43.708 47.698002 51.688 60.984001 71.176003 78.778 82.669998 86.660004 93.744003 103.124"
     y="0"
     sodipodi:role="line"
     id="tspan250">Scripte, PHP, JSP</tspan></text>

</g><path
       d="m 230.33388,158.61222 0,-9.80829 0,-7.29334 0,-7.29333 0,-9.97595 0,-7.29334 0,-7.37717 0,-9.724454 21.71235,0 16.26331,0 16.26331,0 22.21534,0 16.26331,0 16.26331,0 21.71236,0 0,9.724454 0,7.37717 0,7.29334 0,9.97595 0,7.29333 0,7.29334 0,9.80829 -21.71236,0 -31.60447,49.20908 -0.92215,-49.20908 -22.21534,0 -16.26331,0 -16.26331,0 -21.71235,0 0,0 z m 0,0 0,0 z m 130.69329,-58.765874 0,0 z"
       style="fill:#e6e6e6;fill-opacity:1;fill-rule:evenodd;stroke:none"
       id="path252"
       inkscape:connector-curvature="0" /><g
       id="g254"
       transform="matrix(0.83831485,0,0,0.83831485,4.5756896,63.295819)"><path
         d="m 269.3,113.7 0,-11.7 0,-8.7 0,-8.7 0,-11.9 0,-8.7 0,-8.8 0,-11.6 25.9,0 19.4,0 19.4,0 26.5,0 19.4,0 19.4,0 25.9,0 0,11.6 0,8.8 0,8.7 0,11.9 0,8.7 0,8.7 0,11.7 -25.9,0 -37.7,58.7 -1.1,-58.7 -26.5,0 -19.4,0 -19.4,0 -25.9,0 0,0 z"
         style="fill:none;stroke:none"
         id="path256"
         inkscape:connector-curvature="0" /></g><g
       id="g258"
       transform="matrix(0.83831485,0,0,0.83831485,4.5756896,63.295819)"><path
         d="m 269.3,113.7 0,0 z"
         style="fill:none;stroke:none"
         id="path260"
         inkscape:connector-curvature="0" /></g><g
       id="g262"
       transform="matrix(0.83831485,0,0,0.83831485,4.5756896,63.295819)"><path
         d="m 425.2,43.6 0,0 z"
         style="fill:none;stroke:none"
         id="path264"
         inkscape:connector-curvature="0" /></g><g
       id="g266"
       transform="matrix(0.83831485,0,0,0.83831485,4.5756896,63.295819)"><text
   transform="matrix(1,0,0,-1,286.8,97.4)"
   id="text268"><tspan
     style="font-size:14px;font-variant:normal;font-weight:normal;writing-mode:lr-tb;fill:#000000;fill-opacity:1;fill-rule:nonzero;stroke:none;font-family:Arial;-inkscape-font-specification:ArialMT"
     x="0 13.006 20.790001 28.573999 33.264 42.560001 50.344002 55.034 62.118 69.902 74.592003 78.484001 85.568001 93.351997 101.136 108.92 116.704 120.694"
     y="0"
     sodipodi:role="line"
     id="tspan270">Web-Server sendet </tspan></text>

</g><g
       id="g272"
       transform="matrix(0.83831485,0,0,0.83831485,4.5756896,63.295819)"><text
   transform="matrix(1,0,0,-1,285.2,81.6)"
   id="text274"><tspan
     style="font-size:14px;font-variant:normal;font-weight:normal;writing-mode:lr-tb;fill:#000000;fill-opacity:1;fill-rule:nonzero;stroke:none;font-family:Arial;-inkscape-font-specification:ArialMT"
     x="0 10.192 17.976 25.059999 32.144001 39.928001 47.712002 52.402 59.402 67.185997 71.176003 78.959999 86.744003 90.734001 103.628 111.412 119.196"
     y="0"
     sodipodi:role="line"
     id="tspan276">Ressource an Web-</tspan></text>

</g><g
       id="g278"
       transform="matrix(0.83831485,0,0,0.83831485,4.5756896,63.295819)"><text
   transform="matrix(1,0,0,-1,299.9,65.9)"
   id="text280"><tspan
     style="font-size:14px;font-variant:normal;font-weight:normal;writing-mode:lr-tb;fill:#000000;fill-opacity:1;fill-rule:nonzero;stroke:none;font-family:Arial;-inkscape-font-specification:ArialMT"
     x="0 9.3800001 13.986 21.77 31.962 39.046001 46.830002 51.52 55.509998 62.594002 70.293999 74.283997 82.068001 86.758003 94.542"
     y="0"
     sodipodi:role="line"
     id="tspan282">Browser sofern </tspan></text>

</g><g
       id="g284"
       transform="matrix(0.83831485,0,0,0.83831485,4.5756896,63.295819)"><text
   transform="matrix(1,0,0,-1,317.5,50.2)"
   id="text286"><tspan
     style="font-size:14px;font-variant:normal;font-weight:normal;writing-mode:lr-tb;fill:#000000;fill-opacity:1;fill-rule:nonzero;stroke:none;font-family:Arial;-inkscape-font-specification:ArialMT"
     x="0 7.0840001 14.868 19.558001 23.548 31.332001 39.116001 46.900002 54.599998"
     y="0"
     sodipodi:role="line"
     id="tspan288">verfügbar</tspan></text>

</g><path
       d="m 40.204071,159.3667 0,-5.36521 0,-4.02392 0,-4.02391 0,-5.53287 0,-4.02392 0,-4.02391 0,-5.36521 19.78423,0 14.754342,0 14.838173,0 20.119554,0 14.83818,0 14.75434,0 19.78423,0 0,5.36521 0,4.02391 0,4.02392 0,5.53287 0,4.02391 0,4.02392 0,5.36521 -19.78423,0 -36.4667,43.50854 6.87418,-43.50854 -20.119554,0 -14.838173,0 -14.754342,0 -19.78423,0 0,0 z m 0,0 0,0 z m 118.873049,-32.35895 0,0 z"
       style="fill:#e6e6e6;fill-opacity:1;fill-rule:evenodd;stroke:none"
       id="path290"
       inkscape:connector-curvature="0" /><g
       id="g292"
       transform="matrix(0.83831485,0,0,0.83831485,4.5756896,63.295819)"><path
         d="m 42.5,114.6 0,-6.4 0,-4.8 0,-4.8 0,-6.6 0,-4.8 0,-4.8 0,-6.4 23.6,0 17.6,0 17.7,0 24,0 17.7,0 17.6,0 23.6,0 0,6.4 0,4.8 0,4.8 0,6.6 0,4.8 0,4.8 0,6.4 -23.6,0 -43.5,51.9 8.2,-51.9 -24,0 -17.7,0 -17.6,0 -23.6,0 0,0 z"
         style="fill:none;stroke:none"
         id="path294"
         inkscape:connector-curvature="0" /></g><g
       id="g296"
       transform="matrix(0.83831485,0,0,0.83831485,4.5756896,63.295819)"><path
         d="m 42.5,114.6 0,0 z"
         style="fill:none;stroke:none"
         id="path298"
         inkscape:connector-curvature="0" /></g><g
       id="g300"
       transform="matrix(0.83831485,0,0,0.83831485,4.5756896,63.295819)"><path
         d="m 184.3,76 0,0 z"
         style="fill:none;stroke:none"
         id="path302"
         inkscape:connector-curvature="0" /></g><g
       id="g304"
       transform="matrix(0.83831485,0,0,0.83831485,4.5756896,63.295819)"><text
   transform="matrix(1,0,0,-1,54.1,98.3)"
   id="text306"><tspan
     style="font-size:14px;font-variant:normal;font-weight:normal;writing-mode:lr-tb;fill:#000000;fill-opacity:1;fill-rule:nonzero;stroke:none;font-family:Arial;-inkscape-font-specification:ArialMT"
     x="0 13.006 20.790001 28.573999 33.264 42.560001 47.25 55.034 65.225998 72.309998 80.094002 84.783997 88.676003 95.760002 103.544 106.638 114.422 118.412"
     y="0"
     sodipodi:role="line"
     id="tspan308">Web-Browser zeigt </tspan></text>

</g><g
       id="g310"
       transform="matrix(0.83831485,0,0,0.83831485,4.5756896,63.295819)"><text
   transform="matrix(1,0,0,-1,70,82.5)"
   id="text312"><tspan
     style="font-size:14px;font-variant:normal;font-weight:normal;writing-mode:lr-tb;fill:#000000;fill-opacity:1;fill-rule:nonzero;stroke:none;font-family:Arial;-inkscape-font-specification:ArialMT"
     x="0 10.192 17.976 24.976 32.060001 39.844002 47.627998 52.318001 59.402 67.185997 71.176003 78.875999"
     y="0"
     sodipodi:role="line"
     id="tspan314">Ressource an</tspan></text>

</g></g></svg>