<?xml version="1.0" encoding="UTF-8" standalone="no"?>
<!-- Created with Inkscape (http://www.inkscape.org/) -->

<svg
   xmlns:dc="http://purl.org/dc/elements/1.1/"
   xmlns:cc="http://creativecommons.org/ns#"
   xmlns:rdf="http://www.w3.org/1999/02/22-rdf-syntax-ns#"
   xmlns:svg="http://www.w3.org/2000/svg"
   xmlns="http://www.w3.org/2000/svg"
   xmlns:sodipodi="http://sodipodi.sourceforge.net/DTD/sodipodi-0.dtd"
   xmlns:inkscape="http://www.inkscape.org/namespaces/inkscape"
   version="1.0"
   width="55.310001"
   height="68.379997"
   id="svg5186"
   sodipodi:version="0.32"
   inkscape:version="0.48.1 r9760"
   sodipodi:docname="fh.svg"
   inkscape:output_extension="org.inkscape.output.svg.inkscape">
  <metadata
     id="metadata169">
    <rdf:RDF>
      <cc:Work
         rdf:about="">
        <dc:format>image/svg+xml</dc:format>
        <dc:type
           rdf:resource="http://purl.org/dc/dcmitype/StillImage" />
        <dc:title></dc:title>
      </cc:Work>
    </rdf:RDF>
  </metadata>
  <sodipodi:namedview
     inkscape:window-height="699"
     inkscape:window-width="1280"
     inkscape:pageshadow="2"
     inkscape:pageopacity="0.0"
     guidetolerance="10.0"
     gridtolerance="10.0"
     objecttolerance="10.0"
     borderopacity="1.0"
     bordercolor="#666666"
     pagecolor="#ffffff"
     id="base"
     showgrid="false"
     inkscape:zoom="3.26"
     inkscape:cx="-9.1743765"
     inkscape:cy="25.347851"
     inkscape:window-x="0"
     inkscape:window-y="0"
     inkscape:current-layer="layer1"
     inkscape:window-maximized="0" />
  <defs
     id="defs5188">
    <inkscape:perspective
       sodipodi:type="inkscape:persp3d"
       inkscape:vp_x="0 : 39.691048 : 1"
       inkscape:vp_y="0 : 1000 : 0"
       inkscape:vp_z="209.31499 : 39.691048 : 1"
       inkscape:persp3d-origin="104.65749 : 26.460698 : 1"
       id="perspective171" />
  </defs>
  <g
     transform="translate(-333.34251,-291.3854)"
     id="layer1">
    <g
       transform="matrix(1.25,0,0,-1.25,374.32624,337.3148)"
       id="g2781">
      <path
         d="m 0,0 c -0.65,1.335 -1.32,3.244 -1.761,4.164 -0.301,0.628 -0.573,1.472 -0.852,2.391 l 0.044,5.582 C -1.947,10.369 -1.141,8.614 0.026,7.299 L 0,0"
         id="path2783"
         style="fill:#5c2d91;fill-opacity:1;fill-rule:nonzero;stroke:none"
         inkscape:connector-curvature="0" />
    </g>
    <g
       transform="matrix(1.25,0,0,-1.25,378.69625,341.99728)"
       id="g2785">
      <path
         d="m 0,0 c -1.106,0.716 -1.958,1.642 -2.568,2.472 l 0.012,7.837 c 0.155,-0.132 0.316,-0.256 0.483,-0.372 0.612,-0.424 1.32,-0.67 2.052,-0.787 L 0,0"
         id="path2787"
         style="fill:#5c2d91;fill-opacity:1;fill-rule:nonzero;stroke:none"
         inkscape:connector-curvature="0" />
    </g>
    <g
       transform="matrix(1.25,0,0,-1.25,379.63251,342.46603)"
       id="g2789">
      <path
         d="M 0,0 C 0.785,-0.395 1.677,-0.675 2.676,-0.754 L 2.718,9.787 C 1.948,9.596 1.045,9.466 0.136,9.494 L 0,0"
         id="path2791"
         style="fill:#5c2d91;fill-opacity:1;fill-rule:nonzero;stroke:none"
         inkscape:connector-curvature="0" />
    </g>
    <g
       transform="matrix(1.25,0,0,-1.25,369.89,325.89604)"
       id="g2793">
      <path
         d="m 0,0 c -0.407,1.208 -0.874,2.336 -1.478,3.091 -0.295,0.33 -0.657,0.519 -1.044,0.584 l 0.048,8.623 c 0.337,-0.856 0.645,-1.66 1.037,-2.221 0.848,-2.581 1.013,-3.044 1.434,-4.4 L 0,0"
         id="path2795"
         style="fill:#5c2d91;fill-opacity:1;fill-rule:nonzero;stroke:none"
         inkscape:connector-curvature="0" />
    </g>
    <g
       transform="matrix(1.25,0,0,-1.25,365.62625,321.34104)"
       id="g2797">
      <path
         d="M 0,0 C -0.742,-0.173 -1.477,-0.724 -1.952,-1.545 -2.14,-1.869 -2.323,-2.193 -2.505,-2.519 l -0.1,15.443 c 1.285,-0.343 2.078,-1.323 2.668,-2.457 L 0,0"
         id="path2799"
         style="fill:#5c2d91;fill-opacity:1;fill-rule:nonzero;stroke:none"
         inkscape:connector-curvature="0" />
    </g>
    <g
       transform="matrix(1.25,0,0,-1.25,361.06624,326.76854)"
       id="g2801">
      <path
         d="m 0,0 c -0.922,-1.739 -1.669,-3.048 -2.566,-4.795 l -0.049,21.299 c 0.666,0.509 1.402,0.905 2.119,0.942 0.182,0.009 0.356,0.008 0.524,-0.003 L 0,0"
         id="path2803"
         style="fill:#5c2d91;fill-opacity:1;fill-rule:nonzero;stroke:none"
         inkscape:connector-curvature="0" />
    </g>
    <g
       transform="matrix(1.25,0,0,-1.25,356.69,334.4698)"
       id="g2805">
      <path
         d="m 0,0 c -0.523,-0.987 -1.064,-1.966 -1.639,-2.934 -0.288,-0.505 -0.618,-0.988 -0.976,-1.464 l -0.027,23.136 c 0.369,0.631 0.768,1.261 1.21,1.892 0.263,0.317 0.761,0.919 1.382,1.51 L 0,0"
         id="path2807"
         style="fill:#5c2d91;fill-opacity:1;fill-rule:nonzero;stroke:none"
         inkscape:connector-curvature="0" />
    </g>
    <g
       transform="matrix(1.25,0,0,-1.25,352.085,313.0123)"
       id="g2809">
      <path
         d="M 0,0 C -0.737,-1.39 -1.38,-2.781 -2.075,-4.171 -2.292,-4.634 -2.417,-5.025 -2.612,-5.5 l -0.045,-20.396 c 0.202,0.216 0.397,0.43 0.582,0.642 0.692,0.881 1.418,1.699 2.093,2.518 L 0,0"
         id="path2811"
         style="fill:#5c2d91;fill-opacity:1;fill-rule:nonzero;stroke:none"
         inkscape:connector-curvature="0" />
    </g>
    <g
       transform="matrix(1.25,0,0,-1.25,347.5575,346.40229)"
       id="g2813">
      <path
         d="M 0,0 C -0.782,-0.768 -1.65,-1.537 -2.551,-2.254 L -2.58,13.932 c 0.483,0.959 0.906,1.927 1.48,2.905 0.419,0.784 0.771,1.591 1.104,2.4 L 0,0"
         id="path2815"
         style="fill:#5c2d91;fill-opacity:1;fill-rule:nonzero;stroke:none"
         inkscape:connector-curvature="0" />
    </g>
    <g
       transform="matrix(1.25,0,0,-1.25,343.11,350.0273)"
       id="g2817">
      <path
         d="m 0,0 c -0.813,-0.603 -1.642,-1.15 -2.45,-1.605 l 0.003,14.052 c 0.388,0.382 0.697,0.753 1.019,1.089 0.602,0.627 1.069,1.258 1.464,1.892 L 0,0"
         id="path2819"
         style="fill:#5c2d91;fill-opacity:1;fill-rule:nonzero;stroke:none"
         inkscape:connector-curvature="0" />
    </g>
    <g
       transform="matrix(1.25,0,0,-1.25,338.77124,352.59854)"
       id="g2821">
      <path
         d="m 0,0 c -0.753,-0.368 -1.474,-0.639 -2.131,-0.779 -0.122,-0.026 -0.021,12.919 -0.104,13.043 0.487,0 1.341,0.649 2.216,1.45 L 0,0"
         id="path2823"
         style="fill:#5c2d91;fill-opacity:1;fill-rule:nonzero;stroke:none"
         inkscape:connector-curvature="0" />
    </g>
    <g
       transform="matrix(1.25,0,0,-1.25,335.84875,306.89104)"
       id="g2825">
      <path
         d="M 0,0 0,-39.563"
         id="path2827"
         style="fill:none;stroke:#231f20;stroke-width:0.66100001;stroke-linecap:butt;stroke-linejoin:miter;stroke-miterlimit:4;stroke-opacity:1;stroke-dasharray:none"
         inkscape:connector-curvature="0" />
    </g>
    <g
       transform="matrix(1.25,0,0,-1.25,340.24,306.89104)"
       id="g2829">
      <path
         d="M 0,0 0,-39.563"
         id="path2831"
         style="fill:none;stroke:#231f20;stroke-width:0.66100001;stroke-linecap:butt;stroke-linejoin:miter;stroke-miterlimit:4;stroke-opacity:1;stroke-dasharray:none"
         inkscape:connector-curvature="0" />
    </g>
    <g
       transform="matrix(1.25,0,0,-1.25,344.42625,301.92978)"
       id="g2833">
      <path
         d="M 0,0 0,-39.564"
         id="path2835"
         style="fill:none;stroke:#231f20;stroke-width:0.66100001;stroke-linecap:butt;stroke-linejoin:miter;stroke-miterlimit:4;stroke-opacity:1;stroke-dasharray:none"
         inkscape:connector-curvature="0" />
    </g>
    <g
       transform="matrix(1.25,0,0,-1.25,349.02625,301.92978)"
       id="g2837">
      <path
         d="M 0,0 0,-39.564"
         id="path2839"
         style="fill:none;stroke:#231f20;stroke-width:0.66100001;stroke-linecap:butt;stroke-linejoin:miter;stroke-miterlimit:4;stroke-opacity:1;stroke-dasharray:none"
         inkscape:connector-curvature="0" />
    </g>
    <g
       transform="matrix(1.25,0,0,-1.25,353.5725,294.79855)"
       id="g2841">
      <path
         d="M 0,0 0,-39.563"
         id="path2843"
         style="fill:none;stroke:#231f20;stroke-width:0.66100001;stroke-linecap:butt;stroke-linejoin:miter;stroke-miterlimit:4;stroke-opacity:1;stroke-dasharray:none"
         inkscape:connector-curvature="0" />
    </g>
    <g
       transform="matrix(1.25,0,0,-1.25,357.96625,294.79855)"
       id="g2845">
      <path
         d="M 0,0 0,-39.563"
         id="path2847"
         style="fill:none;stroke:#231f20;stroke-width:0.66100001;stroke-linecap:butt;stroke-linejoin:miter;stroke-miterlimit:4;stroke-opacity:1;stroke-dasharray:none"
         inkscape:connector-curvature="0" />
    </g>
    <g
       transform="matrix(1.25,0,0,-1.25,362.51375,300.84479)"
       id="g2849">
      <path
         d="M 0,0 0,-39.563"
         id="path2851"
         style="fill:none;stroke:#231f20;stroke-width:0.66100001;stroke-linecap:butt;stroke-linejoin:miter;stroke-miterlimit:4;stroke-opacity:1;stroke-dasharray:none"
         inkscape:connector-curvature="0" />
    </g>
    <g
       transform="matrix(1.25,0,0,-1.25,366.905,300.84479)"
       id="g2853">
      <path
         d="M 0,0 0,-39.563"
         id="path2855"
         style="fill:none;stroke:#231f20;stroke-width:0.66100001;stroke-linecap:butt;stroke-linejoin:miter;stroke-miterlimit:4;stroke-opacity:1;stroke-dasharray:none"
         inkscape:connector-curvature="0" />
    </g>
    <g
       transform="matrix(1.25,0,0,-1.25,371.29875,306.73603)"
       id="g2857">
      <path
         d="M 0,0 0,-39.563"
         id="path2859"
         style="fill:none;stroke:#231f20;stroke-width:0.66100001;stroke-linecap:butt;stroke-linejoin:miter;stroke-miterlimit:4;stroke-opacity:1;stroke-dasharray:none"
         inkscape:connector-curvature="0" />
    </g>
    <g
       transform="matrix(1.25,0,0,-1.25,375.69126,306.73603)"
       id="g2861">
      <path
         d="M 0,0 0,-39.563"
         id="path2863"
         style="fill:none;stroke:#231f20;stroke-width:0.66100001;stroke-linecap:butt;stroke-linejoin:miter;stroke-miterlimit:4;stroke-opacity:1;stroke-dasharray:none"
         inkscape:connector-curvature="0" />
    </g>
    <g
       transform="matrix(1.25,0,0,-1.25,379.87625,300.68979)"
       id="g2865">
      <path
         d="M 0,0 0,-39.563"
         id="path2867"
         style="fill:none;stroke:#231f20;stroke-width:0.66100001;stroke-linecap:butt;stroke-linejoin:miter;stroke-miterlimit:4;stroke-opacity:1;stroke-dasharray:none"
         inkscape:connector-curvature="0" />
    </g>
    <g
       transform="matrix(1.25,0,0,-1.25,384.2175,300.68979)"
       id="g2869">
      <path
         d="M 0,0 0,-39.563"
         id="path2871"
         style="fill:none;stroke:#231f20;stroke-width:0.66100001;stroke-linecap:butt;stroke-linejoin:miter;stroke-miterlimit:4;stroke-opacity:1;stroke-dasharray:none"
         inkscape:connector-curvature="0" />
    </g>
  </g>
</svg>
