<?xml version="1.0" encoding="UTF-8" standalone="no"?>
<!-- Created with Inkscape (http://www.inkscape.org/) -->

<svg
   xmlns:dc="http://purl.org/dc/elements/1.1/"
   xmlns:cc="http://creativecommons.org/ns#"
   xmlns:rdf="http://www.w3.org/1999/02/22-rdf-syntax-ns#"
   xmlns:svg="http://www.w3.org/2000/svg"
   xmlns="http://www.w3.org/2000/svg"
   version="1.1"
   width="756.25"
   height="293.75"
   id="svg2"
   xml:space="preserve"><metadata
     id="metadata8"><rdf:RDF><cc:Work
         rdf:about=""><dc:format>image/svg+xml</dc:format><dc:type
           rdf:resource="http://purl.org/dc/dcmitype/StillImage" /><dc:title></dc:title></cc:Work></rdf:RDF></metadata><defs
     id="defs6" /><g
     transform="matrix(1.25,0,0,-1.25,0,293.75)"
     id="g10"><g
       transform="scale(0.1,0.1)"
       id="g12"><path
         d="m 1606.07,1241.46 0,332.07 42.32,0 0,-143.5 116.36,0 0,143.5 42.3,0 0,-332.07 -42.3,0 0,151.77 -116.36,0 0,-151.77 -42.32,0"
         id="path14"
         style="fill:#231f20;fill-opacity:1;fill-rule:nonzero;stroke:none" /><path
         d="m 1873.75,1354.14 c 0,68.06 7.81,124.18 88.3,124.18 80.49,0 88.31,-56.12 88.31,-124.18 0,-102.55 -39.1,-117.28 -88.31,-117.28 -49.21,0 -88.3,14.73 -88.3,117.28 z m 137.05,16.09 c 0,63.48 -19.77,77.27 -48.75,77.27 -28.97,0 -48.75,-13.79 -48.75,-77.27 0,-75.41 9.65,-102.56 48.75,-102.56 39.09,0 48.75,27.15 48.75,102.56"
         id="path16"
         style="fill:#231f20;fill-opacity:1;fill-rule:nonzero;stroke:none" /><path
         d="m 2231.57,1399.22 c 0.92,38.16 -17.94,48.28 -32.19,48.28 -28.99,0 -48.76,-13.79 -48.76,-77.27 0,-75.41 9.65,-102.56 48.76,-102.56 8.73,0 34.95,9.21 33.57,51.06 l 39.55,0 c 1.38,-65.31 -47.37,-81.87 -73.12,-81.87 -49.22,0 -88.31,14.73 -88.31,117.28 0,68.06 7.82,124.18 88.31,124.18 46.44,0 73.58,-27.14 71.28,-79.1 l -39.09,0"
         id="path18"
         style="fill:#231f20;fill-opacity:1;fill-rule:nonzero;stroke:none" /><path
         d="m 2466.13,1241.46 0,157.29 c 0,28.52 -9.2,48.75 -41.4,48.75 -37.71,0 -47.37,-30.35 -47.37,-69.44 l 0,-136.6 -37.71,0 0,332.07 37.71,0 0,-129.7 1.84,0 c 15.18,27.13 32.65,34.49 63.01,34.49 39.56,0 61.63,-19.78 61.63,-72.21 l 0,-164.65 -37.71,0"
         id="path20"
         style="fill:#231f20;fill-opacity:1;fill-rule:nonzero;stroke:none" /><path
         d="m 2638.59,1236.86 c -50.13,0 -81.4,22.09 -80.02,75.43 l 42.77,0 c 0,-13.34 0.46,-44.62 38.63,-44.62 22.54,0 40.01,11.5 40.01,35.42 0,41.39 -115.89,42.32 -115.89,111.77 0,24.36 14.72,63.46 80.02,63.46 41.4,0 76.81,-19.78 73.59,-65.77 l -41.86,0 c 0.47,24.37 -12.42,37.25 -36.32,37.25 -20.24,0 -35.88,-11.03 -35.88,-31.27 0,-40.94 115.9,-40.01 115.9,-110.84 0,-51.05 -34.96,-70.83 -80.95,-70.83"
         id="path22"
         style="fill:#231f20;fill-opacity:1;fill-rule:nonzero;stroke:none" /><path
         d="m 2895.69,1399.22 c 0.9,38.16 -17.94,48.28 -32.21,48.28 -28.97,0 -48.74,-13.79 -48.74,-77.27 0,-75.41 9.65,-102.56 48.74,-102.56 8.73,0 34.97,9.21 33.6,51.06 l 39.53,0 c 1.38,-65.31 -47.36,-81.87 -73.13,-81.87 -49.2,0 -88.3,14.73 -88.3,117.28 0,68.06 7.83,124.18 88.3,124.18 46.45,0 73.6,-27.14 71.3,-79.1 l -39.09,0"
         id="path24"
         style="fill:#231f20;fill-opacity:1;fill-rule:nonzero;stroke:none" /><path
         d="m 3130.23,1241.46 0,157.29 c 0,28.52 -9.18,48.75 -41.39,48.75 -37.71,0 -47.37,-30.35 -47.37,-69.44 l 0,-136.6 -37.7,0 0,332.07 37.7,0 0,-129.7 1.86,0 c 15.17,27.13 32.63,34.49 63.01,34.49 39.53,0 61.61,-19.78 61.61,-72.21 l 0,-164.65 -37.72,0"
         id="path26"
         style="fill:#231f20;fill-opacity:1;fill-rule:nonzero;stroke:none" /><path
         d="m 3358.37,1473.72 37.71,0 0,-183.97 c 0,-16.1 0.92,-32.2 2.3,-48.29 l -40.01,0 0,28.06 -1.39,0 c -12.42,-21.17 -34.48,-32.66 -58.86,-32.66 -40.48,0 -62.53,20.23 -62.53,59.79 l 0,177.07 37.68,0 0,-160.97 c 0,-28.06 12.88,-46.91 39.55,-46.91 20.25,0 45.55,15.16 45.55,53.81 l 0,154.07"
         id="path28"
         style="fill:#231f20;fill-opacity:1;fill-rule:nonzero;stroke:none" /><path
         d="m 3463.22,1241.46 37.7227,0 0,332.07 -37.7227,0 0,-332.07 z"
         id="path30"
         style="fill:#231f20;fill-opacity:1;fill-rule:nonzero;stroke:none" /><path
         d="m 3603.05,1345.41 c 0,-64.86 17.47,-77.74 46.9,-77.74 25.75,0 39.1,20.7 40.46,44.15 l 41.4,0 c -0.44,-51.51 -32.2,-74.96 -80.95,-74.96 -49.2,0 -88.3,14.73 -88.3,117.28 0,68.06 7.82,124.18 88.3,124.18 66.24,0 82.8,-36.33 82.8,-113.15 l 0,-19.76 -130.61,0 z m 90.58,28.5 c 0,67.62 -18.86,75.89 -46.46,75.89 -23.89,0 -43.68,-11.49 -44.12,-75.89 l 90.58,0"
         id="path32"
         style="fill:#231f20;fill-opacity:1;fill-rule:nonzero;stroke:none" /><path
         d="m 1644.71,842.254 0,-152.692 -42.31,0 0,332.058 114.51,0 c 58.88,0 79.57,-41.386 79.57,-82.792 0,-39.098 -21.61,-68.973 -60.7,-75.875 l 0,-0.933 c 38.17,-5.977 51.96,-18.86 54.27,-85.532 0.46,-14.258 5.05,-66.234 11.5,-86.926 l -44.17,0 c -11.95,22.989 -9.18,66.235 -12.86,110.379 -3.23,40.465 -35.88,42.313 -50.14,42.313 l -49.67,0 z m 0,36.777 63.47,0 c 30.36,0 45.07,26.227 45.07,55.203 0,23.911 -11.96,50.602 -44.61,50.602 l -63.93,0 0,-105.805"
         id="path34"
         style="fill:#231f20;fill-opacity:1;fill-rule:nonzero;stroke:none" /><path
         d="m 1974.48,723.141 -0.93,0 c -11.49,-26.692 -29.43,-38.192 -58.41,-38.192 -49.21,0 -63.47,31.75 -63.47,76.36 0,70.363 68.99,73.578 121.88,72.187 0.93,30.84 1.38,64.402 -39.09,64.402 -25.29,0 -38.63,-17.011 -36.34,-41.39 l -40.92,0 c 1.82,51.957 29.43,69.914 78.63,69.914 59.79,0 75.43,-30.824 75.43,-69.914 l 0,-111.77 c 0,-18.375 1.85,-37.242 4.61,-55.176 l -41.39,0 0,33.579 z m -85.09,35.414 c 0,-22.551 11.04,-42.782 36.32,-42.782 23.01,0 51.52,14.254 47.84,89.223 -35.87,-0.465 -84.16,2.77 -84.16,-46.441"
         id="path36"
         style="fill:#231f20;fill-opacity:1;fill-rule:nonzero;stroke:none" /><path
         d="m 2058.19,921.809 42.3,0 51.97,-196.836 0.92,0 56.11,196.836 39.56,0 -72.67,-232.247 -49.21,0 -68.98,232.247"
         id="path38"
         style="fill:#231f20;fill-opacity:1;fill-rule:nonzero;stroke:none" /><path
         d="m 2325.85,793.496 c 0,-64.836 17.48,-77.723 46.91,-77.723 25.76,0 39.09,20.692 40.47,44.145 l 41.39,0 c -0.46,-51.512 -32.19,-74.969 -80.95,-74.969 -49.21,0 -88.3,14.723 -88.3,117.281 0,68.067 7.82,124.192 88.3,124.192 66.24,0 82.79,-36.352 82.79,-113.137 l 0,-19.789 -130.61,0 z m 90.61,28.527 c 0,67.598 -18.87,75.875 -46.46,75.875 -23.92,0 -43.7,-11.5 -44.15,-75.875 l 90.61,0"
         id="path40"
         style="fill:#231f20;fill-opacity:1;fill-rule:nonzero;stroke:none" /><path
         d="m 2645.03,689.562 0,160.969 c 0,24.836 -8.74,45.067 -40.93,45.067 -41.39,0 -47.38,-36.789 -47.38,-68.524 l 0,-137.512 -37.71,0 0,183.958 c 0,16.101 -0.91,32.21 -2.29,48.289 l 40,0 0,-29.891 1.85,0 c 14.71,26.211 32.18,34.504 62.09,34.504 49.66,0 62.09,-29.891 62.09,-75.891 l 0,-160.969 -37.72,0"
         id="path42"
         style="fill:#231f20;fill-opacity:1;fill-rule:nonzero;stroke:none" /><path
         d="m 2817.5,684.949 c -50.13,0 -81.41,22.082 -80.03,75.426 l 42.78,0 c 0,-13.32 0.46,-44.602 38.64,-44.602 22.53,0 40,11.493 40,35.411 0,41.39 -115.9,42.312 -115.9,111.769 0,24.371 14.72,63.469 80.03,63.469 41.38,0 76.81,-19.766 73.57,-65.781 l -41.85,0 c 0.47,24.39 -12.4,37.257 -36.32,37.257 -20.23,0 -35.88,-11.035 -35.88,-31.265 0,-40.945 115.91,-40.016 115.91,-110.836 0,-51.055 -34.97,-70.848 -80.95,-70.848"
         id="path44"
         style="fill:#231f20;fill-opacity:1;fill-rule:nonzero;stroke:none" /><path
         d="m 2994.11,689.562 -37.73,0 0,332.058 37.73,0 0,-123.257 1.37,0 c 12.88,18.395 28.98,28.059 51.07,28.059 74.97,0 76.79,-66.692 76.79,-124.649 0,-102.101 -37.72,-116.824 -74.98,-116.824 -24.36,0 -40.46,10.567 -53.35,32.192 l -0.9,0 0,-27.579 z m 42.3,26.211 c 47.38,0 47.38,50.59 47.38,85.551 0,62.086 -5.54,94.274 -46,94.274 -41.85,0 -43.68,-49.664 -43.68,-80.5 0,-35.387 -4.15,-99.325 42.3,-99.325"
         id="path46"
         style="fill:#231f20;fill-opacity:1;fill-rule:nonzero;stroke:none" /><path
         d="m 3307.3,921.809 37.72,0 0,-183.973 c 0,-16.086 0.92,-32.188 2.31,-48.274 l -40.03,0 0,28.043 -1.37,0 c -12.41,-21.156 -34.5,-32.656 -58.87,-32.656 -40.47,0 -62.56,20.235 -62.56,59.789 l 0,177.071 37.72,0 0,-160.957 c 0,-28.067 12.87,-46.926 39.56,-46.926 20.24,0 45.52,15.172 45.52,53.82 l 0,154.063"
         id="path48"
         style="fill:#231f20;fill-opacity:1;fill-rule:nonzero;stroke:none" /><path
         d="m 3452.19,886.863 0.9,0 c 15.65,35.414 34.96,39.559 71.77,39.559 l 0,-39.098 c -3.23,0.449 -6.91,0.93 -10.13,1.371 -3.22,0.469 -6.43,0.926 -10.12,0.926 -41.84,0 -52.42,-31.723 -52.42,-63.004 l 0,-137.055 -37.72,0 0,232.247 37.72,0 0,-34.946"
         id="path50"
         style="fill:#231f20;fill-opacity:1;fill-rule:nonzero;stroke:none" /><path
         d="m 3689.05,921.809 37.7,0 0,-255.715 c 0,-51.989 -34.5,-64.387 -85.54,-64.387 -38.62,0 -73.59,19.332 -70.38,62.086 l 42.32,0 c 0.47,-21.613 14.72,-33.578 35.42,-33.578 26.2,0 40.48,16.101 40.48,40.023 l 0,48.289 -1.39,0 c -9.65,-18.398 -30.82,-28.965 -51.06,-28.965 -63,0 -75.41,54.27 -75.41,123.243 0,106.715 53.79,113.617 72.66,113.617 24.38,0 43.67,-10.59 54.27,-33.137 l 0.93,0 0,28.524 z m -44.17,-26.668 c -42.76,0 -44.15,-51.52 -44.15,-82.336 0,-74.485 17.02,-91.985 45.08,-91.985 45.53,0 44.14,53.817 44.14,86.024 0,34.488 2.3,88.297 -45.07,88.297"
         id="path52"
         style="fill:#231f20;fill-opacity:1;fill-rule:nonzero;stroke:none" /><path
         d="m 3788.84,797.184 101.195,0 0,35.4141 -101.195,0 0,-35.4141 z"
         id="path54"
         style="fill:#231f20;fill-opacity:1;fill-rule:nonzero;stroke:none" /><path
         d="m 3918.99,1021.62 45.08,0 62.55,-287.913 0.93,0 66.67,287.913 54.74,0 60.25,-287.913 0.91,0 67.61,287.913 44.15,0 -87.85,-332.058 -51.49,0 -63.01,287.915 -0.94,0 -67.14,-287.915 -51.52,0 -80.94,332.058"
         id="path56"
         style="fill:#231f20;fill-opacity:1;fill-rule:nonzero;stroke:none" /><path
         d="m 4381.32,793.496 c 0,-64.836 17.47,-77.723 46.9,-77.723 25.75,0 39.1,20.692 40.49,44.145 l 41.38,0 c -0.45,-51.512 -32.19,-74.969 -80.96,-74.969 -49.2,0 -88.29,14.723 -88.29,117.281 0,68.067 7.81,124.192 88.29,124.192 66.23,0 82.8,-36.352 82.8,-113.137 l 0,-19.789 -130.61,0 z m 90.59,28.527 c 0,67.598 -18.87,75.875 -46.45,75.875 -23.91,0 -43.68,-11.5 -44.14,-75.875 l 90.59,0"
         id="path58"
         style="fill:#231f20;fill-opacity:1;fill-rule:nonzero;stroke:none" /><path
         d="m 4571.25,1021.62 42.32,0 0,-40.487 -42.32,0 0,40.487 z m 40.02,-332.058 -37.72,0 0,232.247 37.72,0 0,-232.247"
         id="path60"
         style="fill:#231f20;fill-opacity:1;fill-rule:nonzero;stroke:none" /><path
         d="m 4802.57,689.562 0,160.969 c 0,24.836 -8.71,45.067 -40.9,45.067 -41.41,0 -47.38,-36.789 -47.38,-68.524 l 0,-137.512 -37.72,0 0,183.958 c 0,16.101 -0.92,32.21 -2.31,48.289 l 40.03,0 0,-29.891 1.82,0 c 14.73,26.211 32.21,34.504 62.11,34.504 49.67,0 62.08,-29.891 62.08,-75.891 l 0,-160.969 -37.73,0"
         id="path62"
         style="fill:#231f20;fill-opacity:1;fill-rule:nonzero;stroke:none" /><path
         d="m 5029.33,921.809 37.71,0 0,-255.715 c 0,-51.989 -34.48,-64.387 -85.54,-64.387 -38.63,0 -73.59,19.332 -70.36,62.086 l 42.3,0 c 0.46,-21.613 14.74,-33.578 35.41,-33.578 26.23,0 40.48,16.101 40.48,40.023 l 0,48.289 -1.39,0 c -9.66,-18.398 -30.8,-28.965 -51.05,-28.965 -63,0 -75.43,54.27 -75.43,123.243 0,106.715 53.81,113.617 72.67,113.617 24.4,0 43.71,-10.59 54.3,-33.137 l 0.9,0 0,28.524 z m -44.15,-26.668 c -42.77,0 -44.16,-51.52 -44.16,-82.336 0,-74.485 17.03,-91.985 45.09,-91.985 45.52,0 44.13,53.817 44.13,86.024 0,34.488 2.32,88.297 -45.06,88.297"
         id="path64"
         style="fill:#231f20;fill-opacity:1;fill-rule:nonzero;stroke:none" /><path
         d="m 5256.06,723.141 -0.92,0 c -11.48,-26.692 -29.44,-38.192 -58.4,-38.192 -49.22,0 -63.47,31.75 -63.47,76.36 0,70.363 69,73.578 121.87,72.187 0.92,30.84 1.39,64.402 -39.09,64.402 -25.29,0 -38.61,-17.011 -36.32,-41.39 l -40.95,0 c 1.86,51.957 29.43,69.914 78.67,69.914 59.79,0 75.42,-30.824 75.42,-69.914 l 0,-111.77 c 0,-18.375 1.82,-37.242 4.58,-55.176 l -41.39,0 0,33.579 z m -85.07,35.414 c 0,-22.551 11.03,-42.782 36.32,-42.782 23.01,0 51.51,14.254 47.83,89.223 -35.88,-0.465 -84.15,2.77 -84.15,-46.441"
         id="path66"
         style="fill:#231f20;fill-opacity:1;fill-rule:nonzero;stroke:none" /><path
         d="m 5405.56,886.863 0.9,0 c 15.64,35.414 34.97,39.559 71.77,39.559 l 0,-39.098 c -3.24,0.449 -6.92,0.93 -10.13,1.371 -3.21,0.469 -6.45,0.926 -10.12,0.926 -41.86,0 -52.42,-31.723 -52.42,-63.004 l 0,-137.055 -37.73,0 0,232.247 37.73,0 0,-34.946"
         id="path68"
         style="fill:#231f20;fill-opacity:1;fill-rule:nonzero;stroke:none" /><path
         d="m 5523.74,921.809 0,44.613 37.72,17.027 0,-61.64 50.57,0 0,-28.524 -50.57,0 0,-142.101 c 0,-14.719 0,-33.579 34.5,-33.579 2.75,0 8.73,0.922 17,1.848 l 0,-28.992 c -12.42,-0.899 -24.82,-3.672 -37.25,-3.672 -35.87,0 -51.97,14.731 -51.97,41.399 l 0,165.097 -38.16,0 0,28.524 38.16,0"
         id="path70"
         style="fill:#231f20;fill-opacity:1;fill-rule:nonzero;stroke:none" /><path
         d="m 5684.25,793.496 c 0,-64.836 17.49,-77.723 46.9,-77.723 25.76,0 39.1,20.692 40.48,44.145 l 41.39,0 c -0.46,-51.512 -32.18,-74.969 -80.94,-74.969 -49.22,0 -88.29,14.723 -88.29,117.281 0,68.067 7.8,124.192 88.29,124.192 66.25,0 82.78,-36.352 82.78,-113.137 l 0,-19.789 -130.61,0 z m 90.61,28.527 c 0,67.598 -18.87,75.875 -46.45,75.875 -23.92,0 -43.69,-11.5 -44.16,-75.875 l 90.61,0"
         id="path72"
         style="fill:#231f20;fill-opacity:1;fill-rule:nonzero;stroke:none" /><path
         d="m 6003.44,689.562 0,160.969 c 0,24.836 -8.75,45.067 -40.92,45.067 -41.41,0 -47.39,-36.789 -47.39,-68.524 l 0,-137.512 -37.7,0 0,183.958 c 0,16.101 -0.93,32.21 -2.32,48.289 l 40.02,0 0,-29.891 1.83,0 c 14.73,26.211 32.21,34.504 62.1,34.504 49.67,0 62.09,-29.891 62.09,-75.891 l 0,-160.969 -37.71,0"
         id="path74"
         style="fill:#231f20;fill-opacity:1;fill-rule:nonzero;stroke:none" /><path
         d="m 189.027,387.504 0,-31.539 -74.902,0 0,-253.07 -36.2734,0 0,253.07 -74.90238,0 0,31.539 186.07778,0"
         id="path76"
         style="fill:#231f20;fill-opacity:1;fill-rule:nonzero;stroke:none" /><path
         d="m 234.023,191.98 c 0,-55.589 14.985,-66.613 40.219,-66.613 22.07,0 33.5,17.731 34.688,37.836 l 35.484,0 c -0.398,-44.152 -27.605,-64.2499 -69.391,-64.2499 -42.171,0 -75.687,12.6019 -75.687,100.5239 0,58.351 6.699,106.445 75.687,106.445 56.77,0 70.961,-31.164 70.961,-97.012 l 0,-16.93 -111.961,0 z m 77.661,24.442 c 0,57.957 -16.157,65.047 -39.813,65.047 -20.496,0 -37.449,-9.879 -37.848,-65.047 l 77.661,0"
         id="path78"
         style="fill:#231f20;fill-opacity:1;fill-rule:nonzero;stroke:none" /><path
         d="m 514.707,238.094 c 0.797,32.722 -15.371,41.41 -27.59,41.41 -24.844,0 -41.785,-11.828 -41.785,-66.234 0,-64.653 8.273,-87.903 41.785,-87.903 7.485,0 29.961,7.883 28.774,43.758 l 33.902,0 c 1.187,-55.98 -40.605,-70.1719 -62.676,-70.1719 -42.183,0 -75.687,12.6019 -75.687,100.5239 0,58.351 6.695,106.445 75.687,106.445 39.817,0 63.074,-23.274 61.102,-67.828 l -33.512,0"
         id="path80"
         style="fill:#231f20;fill-opacity:1;fill-rule:nonzero;stroke:none" /><path
         d="m 726.801,102.895 0,134.808 c 0,24.449 -7.887,41.801 -35.477,41.801 -32.328,0 -40.605,-26.027 -40.605,-59.535 l 0,-117.074 -32.324,0 0,284.609 32.324,0 0,-111.168 1.578,0 c 13,23.266 27.984,29.586 54.004,29.586 33.898,0 52.828,-16.957 52.828,-61.906 l 0,-141.121 -32.328,0"
         id="path82"
         style="fill:#231f20;fill-opacity:1;fill-rule:nonzero;stroke:none" /><path
         d="m 934.949,102.895 0,137.976 c 0,21.281 -7.496,38.633 -35.086,38.633 -35.484,0 -40.601,-31.539 -40.601,-58.738 l 0,-117.871 -32.332,0 0,157.671 c 0,13.813 -0.785,27.602 -1.965,41.399 l 34.297,0 0,-25.629 1.57,0 c 12.617,22.469 27.602,29.586 53.223,29.586 42.57,0 53.215,-25.645 53.215,-65.051 l 0,-137.976 -32.321,0"
         id="path84"
         style="fill:#231f20;fill-opacity:1;fill-rule:nonzero;stroke:none" /><path
         d="m 1032.31,387.504 36.28,0 0,-34.684 -36.28,0 0,34.684 z m 34.31,-284.609 -32.33,0 0,199.07 32.33,0 0,-199.07"
         id="path86"
         style="fill:#231f20;fill-opacity:1;fill-rule:nonzero;stroke:none" /><path
         d="m 1165.95,102.895 -32.33,0 0,284.609 32.33,0 0,-171.477 0.79,0 60.71,85.938 39.42,0 -66.23,-85.543 78.06,-113.527 -41,0 -70.96,111.562 -0.79,0 0,-111.562"
         id="path88"
         style="fill:#231f20;fill-opacity:1;fill-rule:nonzero;stroke:none" /><path
         d="m 1599.66,4.33594 24.4453,0 0,394.211 -24.4453,0 0,-394.211 z"
         id="path90"
         style="fill:#231f20;fill-opacity:1;fill-rule:nonzero;stroke:none" /><path
         d="m 1821.93,387.504 38.63,0 53.62,-246.777 0.79,0 57.16,246.777 46.91,0 51.64,-246.777 0.8,0 57.94,246.777 37.84,0 -75.3,-284.609 -44.15,0 -54,246.785 -0.79,0 -57.56,-246.785 -44.15,0 -69.38,284.609"
         id="path92"
         style="fill:#231f20;fill-opacity:1;fill-rule:nonzero;stroke:none" /><path
         d="m 2201.56,387.504 36.27,0 0,-34.684 -36.27,0 0,34.684 z m 34.29,-284.609 -32.31,0 0,199.07 32.31,0 0,-199.07"
         id="path94"
         style="fill:#231f20;fill-opacity:1;fill-rule:nonzero;stroke:none" /><path
         d="m 2331.25,272.012 0.8,0 c 13.4,30.347 29.95,33.91 61.49,33.91 l 0,-33.508 c -2.77,0.371 -5.92,0.774 -8.68,1.168 -2.76,0.379 -5.51,0.797 -8.67,0.797 -35.87,0 -44.94,-27.211 -44.94,-54.016 l 0,-117.468 -32.32,0 0,199.07 32.32,0 0,-29.953"
         id="path96"
         style="fill:#231f20;fill-opacity:1;fill-rule:nonzero;stroke:none" /><path
         d="m 2438.47,301.965 0,38.23 32.33,14.586 0,-52.816 43.36,0 0,-24.449 -43.36,0 0,-121.797 c 0,-12.621 0,-28.801 29.57,-28.801 2.35,0 7.49,0.812 14.58,1.594 l 0,-24.844 c -10.64,-0.773 -21.28,-3.145 -31.93,-3.145 -30.75,0 -44.55,12.622 -44.55,35.465 l 0,141.528 -32.72,0 0,24.449 32.72,0"
         id="path98"
         style="fill:#231f20;fill-opacity:1;fill-rule:nonzero;stroke:none" /><path
         d="m 2609.17,98.9531 c -42.97,0 -69.77,18.9139 -68.59,64.6519 l 36.66,0 c 0,-11.433 0.39,-38.238 33.12,-38.238 19.31,0 34.3,9.848 34.3,30.352 0,35.465 -99.34,36.261 -99.34,95.789 0,20.906 12.61,54.414 68.58,54.414 35.48,0 65.83,-16.957 63.08,-56.387 l -35.87,0 c 0.39,20.887 -10.65,31.934 -31.15,31.934 -17.35,0 -30.75,-9.457 -30.75,-26.809 0,-35.078 99.34,-34.297 99.34,-95.019 0,-43.758 -29.96,-60.6879 -69.38,-60.6879"
         id="path100"
         style="fill:#231f20;fill-opacity:1;fill-rule:nonzero;stroke:none" /><path
         d="m 2835.45,238.094 c 0.78,32.722 -15.38,41.41 -27.59,41.41 -24.84,0 -41.8,-11.828 -41.8,-66.234 0,-64.653 8.28,-87.903 41.8,-87.903 7.47,0 29.97,7.883 28.78,43.758 l 33.89,0 c 1.18,-55.98 -40.59,-70.1719 -62.67,-70.1719 -42.19,0 -75.7,12.6019 -75.7,100.5239 0,58.351 6.71,106.445 75.7,106.445 39.81,0 63.08,-23.274 61.1,-67.828 l -33.51,0"
         id="path102"
         style="fill:#231f20;fill-opacity:1;fill-rule:nonzero;stroke:none" /><path
         d="m 3042.4,102.895 0,134.808 c 0,24.449 -7.88,41.801 -35.46,41.801 -32.32,0 -40.62,-26.027 -40.62,-59.535 l 0,-117.074 -32.32,0 0,284.609 32.32,0 0,-111.168 1.59,0 c 13,23.266 27.97,29.586 53.99,29.586 33.93,0 52.84,-16.957 52.84,-61.906 l 0,-141.121 -32.34,0"
         id="path104"
         style="fill:#231f20;fill-opacity:1;fill-rule:nonzero;stroke:none" /><path
         d="m 3239.92,131.664 -0.79,0 c -9.86,-22.871 -25.23,-32.7109 -50.07,-32.7109 -42.17,0 -54.4,27.1879 -54.4,65.4259 0,60.312 59.13,63.09 104.47,61.906 0.79,26.395 1.18,55.184 -33.51,55.184 -21.68,0 -33.14,-14.59 -31.14,-35.496 l -35.11,0 c 1.6,44.562 25.24,59.949 67.43,59.949 51.24,0 64.65,-26.418 64.65,-59.949 l 0,-95.77 c 0,-15.769 1.57,-31.949 3.94,-47.308 l -35.47,0 0,28.769 z m -72.94,30.348 c 0,-19.301 9.45,-36.645 31.14,-36.645 19.71,0 44.16,12.219 41.01,76.469 -30.77,-0.395 -72.15,2.371 -72.15,-39.824"
         id="path106"
         style="fill:#231f20;fill-opacity:1;fill-rule:nonzero;stroke:none" /><path
         d="m 3346.34,301.965 0,38.633 c 0,40.203 28.4,48.093 57.16,48.093 6.7,0 10.64,-0.379 15.39,-1.187 l 0,-23.238 c -34.29,2.343 -40.21,-12.215 -40.21,-28.399 l 0,-33.902 40.21,0 0,-24.449 -40.21,0 0,-174.621 -32.34,0 0,174.621 -30.74,0 0,24.449 30.74,0"
         id="path108"
         style="fill:#231f20;fill-opacity:1;fill-rule:nonzero;stroke:none" /><path
         d="m 3459.5,301.965 0,38.23 32.32,14.586 0,-52.816 43.36,0 0,-24.449 -43.36,0 0,-121.797 c 0,-12.621 0,-28.801 29.58,-28.801 2.35,0 7.48,0.812 14.56,1.594 l 0,-24.844 c -10.62,-0.773 -21.28,-3.145 -31.92,-3.145 -30.75,0 -44.54,12.622 -44.54,35.465 l 0,141.528 -32.73,0 0,24.449 32.73,0"
         id="path110"
         style="fill:#231f20;fill-opacity:1;fill-rule:nonzero;stroke:none" /><path
         d="m 3748.02,4.33594 24.4258,0 0,394.211 -24.4258,0 0,-394.211 z"
         id="path112"
         style="fill:#231f20;fill-opacity:1;fill-rule:nonzero;stroke:none" /><path
         d="m 4062.2,187.629 0,-8.27 c 0,-38.632 24.45,-50.847 47.7,-50.847 28.78,0 50.85,12.215 50.85,46.125 0,63.066 -127.72,55.976 -127.72,141.511 0,50.461 35.87,77.282 83.57,77.282 52.03,0 81.2,-25.246 78.83,-83.184 l -37.86,0 c 0.42,31.141 -9.43,51.641 -43.73,51.641 -21.67,0 -43.77,-11.032 -43.77,-41.801 0,-62.66 127.73,-53.598 127.73,-143.867 0,-59.914 -41.38,-79.2502 -88.3,-79.2502 -83.96,-0.7813 -83.96,63.4692 -83.18,90.6602 l 35.88,0"
         id="path114"
         style="fill:#231f20;fill-opacity:1;fill-rule:nonzero;stroke:none" /><path
         d="m 4250.25,199.477 c 0,58.351 6.67,106.445 75.67,106.445 68.99,0 75.69,-48.094 75.69,-106.445 0,-87.922 -33.49,-100.5239 -75.69,-100.5239 -42.17,0 -75.67,12.6019 -75.67,100.5239 z m 117.45,13.793 c 0,54.406 -16.95,66.234 -41.78,66.234 -24.83,0 -41.79,-11.828 -41.79,-66.234 0,-64.653 8.28,-87.903 41.79,-87.903 33.51,0 41.78,23.25 41.78,87.903"
         id="path116"
         style="fill:#231f20;fill-opacity:1;fill-rule:nonzero;stroke:none" /><path
         d="m 4567.18,272.414 -87.91,-143.121 90.69,0 0,-26.398 -125.78,0 0,30.355 86.74,141.508 0,0.797 -82.39,0 0,26.41 118.65,0 0,-29.551"
         id="path118"
         style="fill:#231f20;fill-opacity:1;fill-rule:nonzero;stroke:none" /><path
         d="m 4615.27,387.504 36.29,0 0,-34.684 -36.29,0 0,34.684 z m 34.32,-284.609 -32.34,0 0,199.07 32.34,0 0,-199.07"
         id="path120"
         style="fill:#231f20;fill-opacity:1;fill-rule:nonzero;stroke:none" /><path
         d="m 4813.96,131.664 -0.8,0 c -9.84,-22.871 -25.23,-32.7109 -50.07,-32.7109 -42.18,0 -54.39,27.1879 -54.39,65.4259 0,60.312 59.14,63.09 104.46,61.906 0.8,26.395 1.19,55.184 -33.49,55.184 -21.71,0 -33.12,-14.59 -31.16,-35.496 l -35.09,0 c 1.59,44.562 25.24,59.949 67.43,59.949 51.26,0 64.63,-26.418 64.63,-59.949 l 0,-95.77 c 0,-15.769 1.57,-31.949 3.95,-47.308 l -35.47,0 0,28.769 z m -72.93,30.348 c 0,-19.301 9.46,-36.645 31.13,-36.645 19.72,0 44.15,12.219 41,76.469 -30.74,-0.395 -72.13,2.371 -72.13,-39.824"
         id="path122"
         style="fill:#231f20;fill-opacity:1;fill-rule:nonzero;stroke:none" /><path
         d="m 4913.7,102.895 32.3242,0 0,284.609 -32.3242,0 0,-284.609 z"
         id="path124"
         style="fill:#231f20;fill-opacity:1;fill-rule:nonzero;stroke:none" /><path
         d="m 4983.07,301.965 35.87,0 35.88,-171.496 0.79,0 44.16,171.496 45.71,0 40.62,-171.496 0.8,0 39.4,171.496 34.3,0 -53.22,-199.07 -43.36,0 -42.59,169.519 -0.79,0 -44.54,-169.519 -43.36,0 -49.67,199.07"
         id="path126"
         style="fill:#231f20;fill-opacity:1;fill-rule:nonzero;stroke:none" /><path
         d="m 5329.98,191.98 c 0,-55.589 14.97,-66.613 40.2,-66.613 22.09,0 33.51,17.731 34.71,37.836 l 35.47,0 c -0.39,-44.152 -27.61,-64.2499 -69.38,-64.2499 -42.19,0 -75.69,12.6019 -75.69,100.5239 0,58.351 6.69,106.445 75.69,106.445 56.75,0 70.95,-31.164 70.95,-97.012 l 0,-16.93 -111.95,0 z m 77.65,24.442 c 0,57.957 -16.15,65.047 -39.83,65.047 -20.48,0 -37.42,-9.879 -37.82,-65.047 l 77.65,0"
         id="path128"
         style="fill:#231f20;fill-opacity:1;fill-rule:nonzero;stroke:none" /><path
         d="m 5560.2,98.9531 c -42.97,0 -69.77,18.9139 -68.58,64.6519 l 36.67,0 c 0,-11.433 0.35,-38.238 33.1,-38.238 19.31,0 34.29,9.848 34.29,30.352 0,35.465 -99.35,36.261 -99.35,95.789 0,20.906 12.62,54.414 68.6,54.414 35.48,0 65.83,-16.957 63.06,-56.387 l -35.87,0 c 0.42,20.887 -10.64,31.934 -31.14,31.934 -17.34,0 -30.75,-9.457 -30.75,-26.809 0,-35.078 99.33,-34.297 99.33,-95.019 0,-43.758 -29.95,-60.6879 -69.36,-60.6879"
         id="path130"
         style="fill:#231f20;fill-opacity:1;fill-rule:nonzero;stroke:none" /><path
         d="m 5713.95,191.98 c 0,-55.589 14.96,-66.613 40.19,-66.613 22.09,0 33.52,17.731 34.71,37.836 l 35.47,0 c -0.39,-44.152 -27.61,-64.2499 -69.38,-64.2499 -42.19,0 -75.69,12.6019 -75.69,100.5239 0,58.351 6.7,106.445 75.69,106.445 56.76,0 70.95,-31.164 70.95,-97.012 l 0,-16.93 -111.94,0 z m 77.66,24.442 c 0,57.957 -16.18,65.047 -39.83,65.047 -20.5,0 -37.46,-9.879 -37.83,-65.047 l 77.66,0"
         id="path132"
         style="fill:#231f20;fill-opacity:1;fill-rule:nonzero;stroke:none" /><path
         d="m 5993.42,102.895 0,137.976 c 0,21.281 -7.46,38.633 -35.07,38.633 -35.47,0 -40.6,-31.539 -40.6,-58.738 l 0,-117.871 -32.34,0 0,157.671 c 0,13.813 -0.77,27.602 -1.96,41.399 l 34.3,0 0,-25.629 1.58,0 c 12.61,22.469 27.58,29.586 53.21,29.586 42.59,0 53.23,-25.645 53.23,-65.051 l 0,-137.976 -32.35,0"
         id="path134"
         style="fill:#231f20;fill-opacity:1;fill-rule:nonzero;stroke:none" /><path
         d="m 1129.93,1129.22 c -23.45,48.23 -47.66,117.21 -63.6,150.46 -10.88,22.71 -20.71,53.2 -30.77,86.38 l 1.58,201.7 c 22.49,-63.87 51.61,-127.29 93.77,-174.8 l -0.98,-263.74"
         id="path136"
         style="fill:#542791;fill-opacity:1;fill-rule:nonzero;stroke:none" /><path
         d="m 1256.27,993.84 c -39.9,25.86 -70.73,59.34 -92.77,89.33 l 0.44,283.18 c 5.61,-4.76 11.41,-9.26 17.42,-13.47 22.13,-15.31 47.71,-24.17 74.19,-28.44 l 0.72,-330.6"
         id="path138"
         style="fill:#542791;fill-opacity:1;fill-rule:nonzero;stroke:none" /><path
         d="m 1283.37,980.262 c 28.38,-14.266 60.58,-24.375 96.69,-27.258 l 1.49,380.956 c -27.8,-6.94 -60.43,-11.63 -93.27,-10.6 l -4.91,-343.098"
         id="path140"
         style="fill:#542791;fill-opacity:1;fill-rule:nonzero;stroke:none" /><path
         d="m 1001.69,1459.33 c -14.67,43.63 -31.569,84.41 -53.378,111.68 -10.648,11.92 -23.726,18.74 -37.742,21.09 l 1.758,311.6 c 12.156,-30.93 23.27,-59.98 37.477,-80.2 30.629,-93.3 36.613,-110.04 51.785,-159.06 l 0.1,-205.11"
         id="path142"
         style="fill:#542791;fill-opacity:1;fill-rule:nonzero;stroke:none" /><path
         d="m 878.434,1590.95 c -26.789,-6.22 -53.372,-26.12 -70.559,-55.81 -6.762,-11.69 -13.402,-23.41 -19.941,-35.17 l -3.586,558.07 c 46.414,-12.4 75.07,-47.82 96.386,-88.79 l -2.3,-378.3"
         id="path144"
         style="fill:#542791;fill-opacity:1;fill-rule:nonzero;stroke:none" /><path
         d="m 746.625,1434.06 c -33.328,-62.83 -60.297,-110.14 -92.711,-173.29 l -1.758,769.69 c 24.028,18.41 50.653,32.75 76.539,34.05 6.571,0.33 12.875,0.31 18.918,-0.07 l -0.988,-630.38"
         id="path146"
         style="fill:#542791;fill-opacity:1;fill-rule:nonzero;stroke:none" /><path
         d="m 620.113,1211.44 c -18.898,-35.64 -38.453,-71.04 -59.234,-106.04 -10.422,-18.23 -22.359,-35.71 -35.25,-52.88 l -0.996,836.05 c 13.351,22.79 27.762,45.58 43.715,68.37 9.547,11.46 27.504,33.17 49.937,54.57 l 1.828,-800.07"
         id="path148"
         style="fill:#542791;fill-opacity:1;fill-rule:nonzero;stroke:none" /><path
         d="m 486.957,1831.77 c -26.613,-50.24 -49.855,-100.48 -74.973,-150.72 -7.832,-16.76 -12.367,-30.85 -19.425,-48.05 l -1.621,-737.055 c 7.328,7.821 14.367,15.559 21.046,23.18 25.036,31.875 51.227,61.441 75.653,91.035 l -0.68,821.61"
         id="path150"
         style="fill:#542791;fill-opacity:1;fill-rule:nonzero;stroke:none" /><path
         d="M 356.082,866.469 C 327.836,838.715 296.488,810.91 263.918,785.023 l -1.082,584.907 c 17.453,34.66 32.762,69.66 53.535,104.96 15.109,28.35 27.832,57.49 39.848,86.75 l -0.137,-695.171"
         id="path152"
         style="fill:#542791;fill-opacity:1;fill-rule:nonzero;stroke:none" /><path
         d="m 227.527,761.68 c -29.425,-21.766 -59.371,-41.578 -88.535,-58.035 l 0.094,507.815 c 13.984,13.81 25.219,27.21 36.848,39.34 21.746,22.66 38.621,45.48 52.878,68.43 l -1.285,-557.55"
         id="path154"
         style="fill:#542791;fill-opacity:1;fill-rule:nonzero;stroke:none" /><path
         d="M 102.09,687.336 C 74.8789,674.047 48.8164,664.285 25.0547,659.207 c -4.3906,-0.949 -0.7539,466.843 -3.7344,471.333 17.6094,0 48.4219,23.43 80.0857,52.35 l 0.684,-495.554"
         id="path156"
         style="fill:#542791;fill-opacity:1;fill-rule:nonzero;stroke:none" /><path
         d="m 17.582,2059.2 0,-1506.552"
         id="path158"
         style="fill:none;stroke:#231f20;stroke-width:23.89999962;stroke-linecap:butt;stroke-linejoin:miter;stroke-miterlimit:4;stroke-opacity:1;stroke-dasharray:none" /><path
         d="m 144.559,2059.2 0,-1506.552"
         id="path160"
         style="fill:none;stroke:#231f20;stroke-width:23.89999962;stroke-linecap:butt;stroke-linejoin:miter;stroke-miterlimit:4;stroke-opacity:1;stroke-dasharray:none" /><path
         d="m 265.574,2196.15 0,-1506.545"
         id="path162"
         style="fill:none;stroke:#231f20;stroke-width:23.89999962;stroke-linecap:butt;stroke-linejoin:miter;stroke-miterlimit:4;stroke-opacity:1;stroke-dasharray:none" /><path
         d="m 398.539,2196.15 0,-1506.545"
         id="path164"
         style="fill:none;stroke:#231f20;stroke-width:23.89999962;stroke-linecap:butt;stroke-linejoin:miter;stroke-miterlimit:4;stroke-opacity:1;stroke-dasharray:none" /><path
         d="m 530.008,2333.11 0,-1506.548"
         id="path166"
         style="fill:none;stroke:#231f20;stroke-width:23.89999962;stroke-linecap:butt;stroke-linejoin:miter;stroke-miterlimit:4;stroke-opacity:1;stroke-dasharray:none" /><path
         d="m 656.992,2333.11 0,-1506.548"
         id="path168"
         style="fill:none;stroke:#231f20;stroke-width:23.89999962;stroke-linecap:butt;stroke-linejoin:miter;stroke-miterlimit:4;stroke-opacity:1;stroke-dasharray:none" /><path
         d="m 788.461,2196.15 0,-1506.545"
         id="path170"
         style="fill:none;stroke:#231f20;stroke-width:23.89999962;stroke-linecap:butt;stroke-linejoin:miter;stroke-miterlimit:4;stroke-opacity:1;stroke-dasharray:none" /><path
         d="m 915.441,2196.15 0,-1506.545"
         id="path172"
         style="fill:none;stroke:#231f20;stroke-width:23.89999962;stroke-linecap:butt;stroke-linejoin:miter;stroke-miterlimit:4;stroke-opacity:1;stroke-dasharray:none" /><path
         d="m 1042.43,2059.2 0,-1506.552"
         id="path174"
         style="fill:none;stroke:#231f20;stroke-width:23.89999962;stroke-linecap:butt;stroke-linejoin:miter;stroke-miterlimit:4;stroke-opacity:1;stroke-dasharray:none" /><path
         d="m 1169.41,2059.2 0,-1506.552"
         id="path176"
         style="fill:none;stroke:#231f20;stroke-width:23.89999962;stroke-linecap:butt;stroke-linejoin:miter;stroke-miterlimit:4;stroke-opacity:1;stroke-dasharray:none" /><path
         d="m 1290.43,2196.15 0,-1506.545"
         id="path178"
         style="fill:none;stroke:#231f20;stroke-width:23.89999962;stroke-linecap:butt;stroke-linejoin:miter;stroke-miterlimit:4;stroke-opacity:1;stroke-dasharray:none" /><path
         d="m 1415.91,2196.15 0,-1506.545"
         id="path180"
         style="fill:none;stroke:#231f20;stroke-width:23.89999962;stroke-linecap:butt;stroke-linejoin:miter;stroke-miterlimit:4;stroke-opacity:1;stroke-dasharray:none" /></g></g></svg>